<mxfile host="app.diagrams.net" agent="Mozilla/5.0 (Windows NT 10.0; Win64; x64) AppleWebKit/537.36 (KHTML, like Gecko) Chrome/127.0.0.0 Safari/537.36" version="24.7.6">
  <diagram name="Page-1" id="GASq4ZnHUgDOGNl0xC2m">
    <mxGraphModel dx="2080" dy="1180" grid="1" gridSize="10" guides="1" tooltips="1" connect="1" arrows="1" fold="1" page="1" pageScale="1" pageWidth="827" pageHeight="1169" math="0" shadow="0">
      <root>
        <mxCell id="0" />
        <mxCell id="1" parent="0" />
        <mxCell id="af7otZp4B_gTomQ4dQiQ-48" value="" style="shape=image;verticalLabelPosition=bottom;labelBackgroundColor=default;verticalAlign=top;aspect=fixed;imageAspect=0;image=data:image/png,iVBORw0KGgoAAAANSUhEUgAAAgAAAAIACAMAAADDpiTIAAAAilBMVEUAAAA4OEw1OEk1Nko2OEs0NkszM0w1N0o2Nks4OFQ1OEo3N002Nkg0Nks0OEs0Nkk2OEs1OEs2N0k1N0o0N0s0NEs1OEo1N0szOEs2OEs2OEsvP082N0k1NUk1OUk0OEw0OEs2Nk02OEo2Nks0Nkk2OEo2Nks0OEk2Nko/Pz82OEo0OUg2N0o2OEvkqzuBAAAALXRSTlMAMpnb+vsKnZsJwxcO98f85rrGd5witZg22Z8Q4TRMTbQhdbfkli/CwAiaMZfrZxnlAAAHk0lEQVR42u3X62IbVxlGYTtx0hZaKGdCCQVKOPv+bw9+N4kt6Rtrz2g96wr2fueRNLq7O6P7V68fHjXqzetX9+dsvqPefrF6vFvpy69WP8uLnv9PVu92Q/109dO8IJ//Lft69eM8u/vVk91W3xxOwKvVk91YPzuagNerF7u1jibA/7+tO5iA1XPdYMcSsHqtW+xQAlaPdZMdScDqrW6zAwlYPdWNdhwBq5e61Q4jYPVQN9tRBKze6XY7iIAfH3v1eY7W4QUAMOvw3wEAzDr8rwAAsw7/HgDArMO/CQIw6/D/BQCY9RyA3QsAYNazAPYuAIBZzwPYuQAAZp0AYN8CAJh1CoBdCwBg1kfP+mgCAJj14/2+PpoAAGZ9tN/RBAAw6+P9DiYAgFmf2O9YAgCY9an9DiUAgFmf3O9IAgCY9en9DiQAgFmf2e84AgCY9bn9DiMAgFmf3e8oAgCY9fn9DiIAgFlP7HcMAQDMemq/QwgAYNaT+x1BAACznt7vAAIAmPXMfvsXAMCs5/bbvQAAZj27394FADDr+f12LgCAWSfst28BAMw6Zb9dCwBg1kn77VkAALNO22/HAgCYdeJ++xUAwKxT99utAABmnbzfXgUAMOv0/XYqAIBZZ+y3TwEAzDpnv10KAGDWWfvtUQAAs87bb4cCAJh15n77EwDArHP3250AAGadvd/eBAAw6/z9diYAgFkX7LcvAQDMumS/XQkAYNZF++1JAACzLttvRwIAmHXhfvsRAMCsS/fbjQAAZl28314EADDr8v12IgCAWYP99iEAgFmT/XYhAIBZo/32IACAWbP9diAAgFnD/dYLAGDWdL/lAgCYNd5vtQAAZs33WywAgFkb7LdWAACztthvqQAAZm2y30oBAMzaZr+FAgCYtdF+6wQAMGur/ZYJAGDWZvutEgDArO32WyQAgFkb7rdGAACzttxviQAAZm263woBAMzadr8FAgCYtfF+1xcAwKyt97u6AABmbb7ftQUAMGv7/a4sAIBZL7DfdQUAMOvnj1frZQQAMOvb6wF4GQEAzPrFFQE8/vLt9hcAYNavrgng8dfbXwCAWb+5KoDH+80vAMCw314VwO82Pz8Aw35/VQDvNj8/ANP+cE0AD5sfH4Bp3/3xmgI2Pz4A495/A0C7P70BoN331/sO2PzsAGzR+6u9B2x+dAA26bsvAIj3/s8AxPvLX3/424u/Dm5+agD2HQDxAIgHQDwA4gEQD4B4AMQDIB4A8QCIB0A8AOIBEA+AeADEAyAeAPEAiAdAPADiARAPgHgAxAMgHgDxAIgHQDwA4gEQD4B4AMQDIB4A8QCIB0A8AOIBEA+AeADEAyAeAPEAiAdAPADiARAPgHgAxAMgHgDxAIgHQDwA4gEQD4B4AMQDIB4A8QCIB0A8AOIBEA+AeADEAyAeAPEAiAdAPADiARAPgHgAxAMgHgDxAIgHQDwA4gEQD4B4AMQDIB4A8QCIB0A8AOIBEA+AeADEAyAeAPEAiAdAPADiARAPgHgAxAMgHgDxAIgHQDwA4gEQD4B4AMQDIB4A8QCIB0A8AOIBEA+AeADEAyAeAPEAiAdAPADiARAPgHgAxAMgHgDxAIgHQDwA4gEQD4B4AMQDIB4A8QCIB0A8AOIBEA+AeADEAyAeAPEAiAdAPADiARAPgHgAxAMgHgDxAIgHQDwA4gEQD4B4AMQDIB4A8QCIB0A8AOIBEA+AeADEAyAeAPEAiAdAPADiARAPgHgAxAMgHgDxAIgHQDwA4gEQD4B4AMQDIB4A8QCIB0A8AOIBEA+AeADEAyAeAPEAiAdAPADiARAPgHgAxAMgHgDxAIgHQDwA4gEQD4B4AMQDIB4A8QCIB0A8AOIBEA+AeADEAyAeAPEAiAdAPADiARAPgHgAxAMgHgDxAIgHQDwA4gEQD4B4AMQDIB4A8QCIB0A8AOIBEA+AeADEAyAeAPEAiAdAPADiARAPgHgAxAMgHgDxAIgHQDwA4gEQD4B4AMQDIB4A8QCIB0A8AOIBEA+AeADEAyAeAPEAiAdAPADiARAPgHgAxAMgHgDxAIgHQDwA4gEQD4B4AMQDIB4A8QCIB0A8AOIBEA+AeADEAyAeAPEAiAdAPADiARAPgHgAxAMgHgDxAIgHQDwA4gEQD4B4AMQDIB4A8QCIB0A8AOIBEA+AeADEAyAeAPEAiAdAPADiARAPgHgAxAMgHgDxAIgHQDwA4gEQD4B4AMQDIB4A8QCIB0A8AOIBEA+AeADEAyAeAPEAiAdAPADiARAPgHgAxAMgHgDxAIgHQDwA4gEQD4B4AMQDIB4A8QCIB0A8AOIBEA+AeADEAyAeAPEAiAdAPADiARAPgHgAxAMgHgDxAIgHQDwA4gEQD4B4AMQDIB4A8QCIB0A8AOIBEA+AeADEAyAeAPEAiAdAPADiARAPgHgAxLs6AO07AOIBEA+AeADEAyAeAPEAiLc5gDerb6RzetgcwOvVV9I5vdscwKvVV9I5fdgcwP3qK+mc/r45gLsvV99Jp7f9F8Dd3Vf/WH0rndo///UCAO7e/nv1vXRaH17k+f+///z33cPqy+npHt59OOv3/395aCoIcRNUkQAAAABJRU5ErkJggg==;" vertex="1" parent="1">
          <mxGeometry x="1161" y="260" width="237" height="237" as="geometry" />
        </mxCell>
        <mxCell id="af7otZp4B_gTomQ4dQiQ-2" value="Intel i7 1.9GHz" style="text;html=1;align=center;verticalAlign=middle;whiteSpace=wrap;rounded=0;" vertex="1" parent="1">
          <mxGeometry x="145.94" y="351.5" width="100" height="30" as="geometry" />
        </mxCell>
        <mxCell id="af7otZp4B_gTomQ4dQiQ-3" value="16GB RAM" style="text;html=1;align=center;verticalAlign=middle;whiteSpace=wrap;rounded=0;" vertex="1" parent="1">
          <mxGeometry x="280.94" y="349" width="80" height="30" as="geometry" />
        </mxCell>
        <mxCell id="af7otZp4B_gTomQ4dQiQ-5" value="&lt;span style=&quot;color: rgb(68, 68, 68); font-family: Raleway, Helvetica, Tahoma, Geneva, Arial, sans-serif; font-size: 16px; text-align: start; background-color: rgb(255, 255, 255);&quot;&gt;ARM Cortex-A7, 1.2GHz&lt;/span&gt;" style="text;html=1;align=center;verticalAlign=middle;whiteSpace=wrap;rounded=0;" vertex="1" parent="1">
          <mxGeometry x="435" y="349" width="190" height="30" as="geometry" />
        </mxCell>
        <mxCell id="af7otZp4B_gTomQ4dQiQ-6" value="64MB RAM" style="text;html=1;align=center;verticalAlign=middle;whiteSpace=wrap;rounded=0;" vertex="1" parent="1">
          <mxGeometry x="644" y="351.5" width="80" height="30" as="geometry" />
        </mxCell>
        <mxCell id="af7otZp4B_gTomQ4dQiQ-7" value="Framebuffer (/dev/fb0)" style="text;html=1;align=center;verticalAlign=middle;whiteSpace=wrap;rounded=0;" vertex="1" parent="1">
          <mxGeometry x="579.5" y="230.25" width="139" height="30" as="geometry" />
        </mxCell>
        <mxCell id="af7otZp4B_gTomQ4dQiQ-8" value="RGB565 LCD" style="text;html=1;align=center;verticalAlign=middle;whiteSpace=wrap;rounded=0;" vertex="1" parent="1">
          <mxGeometry x="261.5" y="424.25" width="139" height="30" as="geometry" />
        </mxCell>
        <mxCell id="af7otZp4B_gTomQ4dQiQ-9" value="&lt;span style=&quot;color: rgb(85, 85, 85); font-family: &amp;quot;Open Sans&amp;quot;, sans-serif; font-size: 16px; text-align: left;&quot;&gt;Cortex-M4F core, 120MHz&lt;/span&gt;" style="text;html=1;align=center;verticalAlign=middle;whiteSpace=wrap;rounded=0;" vertex="1" parent="1">
          <mxGeometry x="114" y="547.49" width="215.5" height="30" as="geometry" />
        </mxCell>
        <mxCell id="af7otZp4B_gTomQ4dQiQ-10" value="&lt;span style=&quot;color: rgb(85, 85, 85); font-family: &amp;quot;Open Sans&amp;quot;, sans-serif; font-size: 16px; text-align: left;&quot;&gt;640KB&lt;/span&gt;&amp;nbsp;RAM" style="text;html=1;align=center;verticalAlign=middle;whiteSpace=wrap;rounded=0;" vertex="1" parent="1">
          <mxGeometry x="339.5" y="547.49" width="80" height="30" as="geometry" />
        </mxCell>
        <mxCell id="af7otZp4B_gTomQ4dQiQ-12" value="&lt;span style=&quot;color: rgb(85, 85, 85); font-family: &amp;quot;Open Sans&amp;quot;, sans-serif; font-size: 16px; text-align: left;&quot;&gt;ESP32, 240MHz&lt;/span&gt;" style="text;html=1;align=center;verticalAlign=middle;whiteSpace=wrap;rounded=0;" vertex="1" parent="1">
          <mxGeometry x="419.5" y="547.49" width="215.5" height="30" as="geometry" />
        </mxCell>
        <mxCell id="af7otZp4B_gTomQ4dQiQ-13" value="&lt;span style=&quot;color: rgb(85, 85, 85); font-family: &amp;quot;Open Sans&amp;quot;, sans-serif; font-size: 16px; text-align: left;&quot;&gt;520KB&lt;/span&gt;&amp;nbsp;RAM" style="text;html=1;align=center;verticalAlign=middle;whiteSpace=wrap;rounded=0;" vertex="1" parent="1">
          <mxGeometry x="619.5" y="547.49" width="80" height="30" as="geometry" />
        </mxCell>
        <mxCell id="af7otZp4B_gTomQ4dQiQ-14" value="TFT LCD" style="text;html=1;align=center;verticalAlign=middle;whiteSpace=wrap;rounded=0;" vertex="1" parent="1">
          <mxGeometry x="579.5" y="424.25" width="139" height="30" as="geometry" />
        </mxCell>
        <UserObject label="&lt;table style=&quot;box-sizing: border-box; border-spacing: 0px; border-collapse: collapse; margin-top: 0px; margin-bottom: var(--base-size-16); display: block; width: max-content; max-width: 100%; overflow: auto; color: rgb(31, 35, 40); font-family: -apple-system, BlinkMacSystemFont, &amp;quot;Segoe UI&amp;quot;, &amp;quot;Noto Sans&amp;quot;, Helvetica, Arial, sans-serif, &amp;quot;Apple Color Emoji&amp;quot;, &amp;quot;Segoe UI Emoji&amp;quot;; font-size: 16px; font-style: normal; font-variant-ligatures: normal; font-variant-caps: normal; font-weight: 400; letter-spacing: normal; orphans: 2; text-align: start; text-transform: none; widows: 2; word-spacing: 0px; -webkit-text-stroke-width: 0px; white-space: normal; background-color: rgb(255, 255, 255); text-decoration-thickness: initial; text-decoration-style: initial; text-decoration-color: initial;&quot;&gt;&lt;thead style=&quot;box-sizing: border-box;&quot;&gt;&lt;tr style=&quot;box-sizing: border-box; background-color: var(--bgColor-default, var(--color-canvas-default)); border-top: 1px solid var(--borderColor-muted, var(--color-border-muted));&quot;&gt;&lt;th style=&quot;box-sizing: border-box; padding: 6px 13px; font-weight: var(--base-text-weight-semibold, 600); border: 1px solid var(--borderColor-default, var(--color-border-default));&quot;&gt;Platform&lt;/th&gt;&lt;th style=&quot;box-sizing: border-box; padding: 6px 13px; font-weight: var(--base-text-weight-semibold, 600); border: 1px solid var(--borderColor-default, var(--color-border-default));&quot;&gt;Hardware&lt;/th&gt;&lt;th style=&quot;box-sizing: border-box; padding: 6px 13px; font-weight: var(--base-text-weight-semibold, 600); border: 1px solid var(--borderColor-default, var(--color-border-default));&quot;&gt;Runtime&lt;/th&gt;&lt;th style=&quot;box-sizing: border-box; padding: 6px 13px; font-weight: var(--base-text-weight-semibold, 600); border: 1px solid var(--borderColor-default, var(--color-border-default));&quot;&gt;GUI&lt;/th&gt;&lt;th style=&quot;box-sizing: border-box; padding: 6px 13px; font-weight: var(--base-text-weight-semibold, 600); border: 1px solid var(--borderColor-default, var(--color-border-default));&quot;&gt;Language&lt;/th&gt;&lt;th style=&quot;box-sizing: border-box; padding: 6px 13px; font-weight: var(--base-text-weight-semibold, 600); border: 1px solid var(--borderColor-default, var(--color-border-default));&quot;&gt;Demo&lt;/th&gt;&lt;/tr&gt;&lt;/thead&gt;&lt;tbody style=&quot;box-sizing: border-box;&quot;&gt;&lt;tr style=&quot;box-sizing: border-box; background-color: var(--bgColor-default, var(--color-canvas-default)); border-top: 1px solid var(--borderColor-muted, var(--color-border-muted));&quot;&gt;&lt;td style=&quot;box-sizing: border-box; padding: 6px 13px; border: 1px solid var(--borderColor-default, var(--color-border-default));&quot;&gt;Browser&lt;/td&gt;&lt;td style=&quot;box-sizing: border-box; padding: 6px 13px; border: 1px solid var(--borderColor-default, var(--color-border-default));&quot;&gt;x64&lt;/td&gt;&lt;td style=&quot;box-sizing: border-box; padding: 6px 13px; border: 1px solid var(--borderColor-default, var(--color-border-default));&quot;&gt;v8 engine (Chrome)&lt;/td&gt;&lt;td style=&quot;box-sizing: border-box; padding: 6px 13px; border: 1px solid var(--borderColor-default, var(--color-border-default));&quot;&gt;canvas&lt;/td&gt;&lt;td style=&quot;box-sizing: border-box; padding: 6px 13px; border: 1px solid var(--borderColor-default, var(--color-border-default));&quot;&gt;Javascript&lt;/td&gt;&lt;td style=&quot;box-sizing: border-box; padding: 6px 13px; border: 1px solid var(--borderColor-default, var(--color-border-default));&quot;&gt;&lt;a href=&quot;https://github.com/wuhanstudio/wasm-embedded/blob/master/browser&quot; style=&quot;box-sizing: border-box; background-color: transparent; color: var(--fgColor-accent, var(--color-accent-fg)); text-decoration: underline; text-underline-offset: 0.2rem; margin-bottom: 0px;&quot;&gt;Click here&lt;/a&gt;&lt;/td&gt;&lt;/tr&gt;&lt;tr style=&quot;box-sizing: border-box; background-color: var(--bgColor-muted, var(--color-canvas-subtle)); border-top: 1px solid var(--borderColor-muted, var(--color-border-muted));&quot;&gt;&lt;td style=&quot;box-sizing: border-box; padding: 6px 13px; border: 1px solid var(--borderColor-default, var(--color-border-default));&quot;&gt;Linux x64&lt;/td&gt;&lt;td style=&quot;box-sizing: border-box; padding: 6px 13px; border: 1px solid var(--borderColor-default, var(--color-border-default));&quot;&gt;x64&lt;/td&gt;&lt;td style=&quot;box-sizing: border-box; padding: 6px 13px; border: 1px solid var(--borderColor-default, var(--color-border-default));&quot;&gt;wasm3&lt;/td&gt;&lt;td style=&quot;box-sizing: border-box; padding: 6px 13px; border: 1px solid var(--borderColor-default, var(--color-border-default));&quot;&gt;pygame&lt;/td&gt;&lt;td style=&quot;box-sizing: border-box; padding: 6px 13px; border: 1px solid var(--borderColor-default, var(--color-border-default));&quot;&gt;Python&lt;/td&gt;&lt;td style=&quot;box-sizing: border-box; padding: 6px 13px; border: 1px solid var(--borderColor-default, var(--color-border-default));&quot;&gt;&lt;a href=&quot;https://github.com/wuhanstudio/wasm-embedded/blob/master/linux&quot; style=&quot;box-sizing: border-box; background-color: transparent; color: var(--fgColor-accent, var(--color-accent-fg)); text-decoration: underline; text-underline-offset: 0.2rem; margin-bottom: 0px;&quot;&gt;Click here&lt;/a&gt;&lt;/td&gt;&lt;/tr&gt;&lt;tr style=&quot;box-sizing: border-box; background-color: var(--bgColor-default, var(--color-canvas-default)); border-top: 1px solid var(--borderColor-muted, var(--color-border-muted));&quot;&gt;&lt;td style=&quot;box-sizing: border-box; padding: 6px 13px; border: 1px solid var(--borderColor-default, var(--color-border-default));&quot;&gt;Arm Linux&lt;/td&gt;&lt;td style=&quot;box-sizing: border-box; padding: 6px 13px; border: 1px solid var(--borderColor-default, var(--color-border-default));&quot;&gt;aarch64 / armhf&lt;/td&gt;&lt;td style=&quot;box-sizing: border-box; padding: 6px 13px; border: 1px solid var(--borderColor-default, var(--color-border-default));&quot;&gt;wasm3&lt;/td&gt;&lt;td style=&quot;box-sizing: border-box; padding: 6px 13px; border: 1px solid var(--borderColor-default, var(--color-border-default));&quot;&gt;framebuffer&lt;/td&gt;&lt;td style=&quot;box-sizing: border-box; padding: 6px 13px; border: 1px solid var(--borderColor-default, var(--color-border-default));&quot;&gt;Python&lt;/td&gt;&lt;td style=&quot;box-sizing: border-box; padding: 6px 13px; border: 1px solid var(--borderColor-default, var(--color-border-default));&quot;&gt;&lt;a href=&quot;https://github.com/wuhanstudio/wasm-embedded/blob/master/arm-linux&quot; style=&quot;box-sizing: border-box; background-color: transparent; color: var(--fgColor-accent, var(--color-accent-fg)); text-decoration: underline; text-underline-offset: 0.2rem; margin-bottom: 0px;&quot;&gt;Click here&lt;/a&gt;&lt;/td&gt;&lt;/tr&gt;&lt;tr style=&quot;box-sizing: border-box; background-color: var(--bgColor-muted, var(--color-canvas-subtle)); border-top: 1px solid var(--borderColor-muted, var(--color-border-muted));&quot;&gt;&lt;td style=&quot;box-sizing: border-box; padding: 6px 13px; border: 1px solid var(--borderColor-default, var(--color-border-default));&quot;&gt;RTOS&lt;/td&gt;&lt;td style=&quot;box-sizing: border-box; padding: 6px 13px; border: 1px solid var(--borderColor-default, var(--color-border-default));&quot;&gt;Cortex-M&lt;/td&gt;&lt;td style=&quot;box-sizing: border-box; padding: 6px 13px; border: 1px solid var(--borderColor-default, var(--color-border-default));&quot;&gt;WAMR&lt;/td&gt;&lt;td style=&quot;box-sizing: border-box; padding: 6px 13px; border: 1px solid var(--borderColor-default, var(--color-border-default));&quot;&gt;LVGL&lt;/td&gt;&lt;td style=&quot;box-sizing: border-box; padding: 6px 13px; border: 1px solid var(--borderColor-default, var(--color-border-default));&quot;&gt;C / C++&lt;/td&gt;&lt;td style=&quot;box-sizing: border-box; padding: 6px 13px; border: 1px solid var(--borderColor-default, var(--color-border-default));&quot;&gt;&lt;a href=&quot;https://github.com/wuhanstudio/wasm-embedded/blob/master/rtos&quot; style=&quot;box-sizing: border-box; background-color: transparent; color: var(--fgColor-accent, var(--color-accent-fg)); text-decoration: underline; text-underline-offset: 0.2rem; margin-bottom: 0px;&quot;&gt;Click here&lt;/a&gt;&lt;/td&gt;&lt;/tr&gt;&lt;tr style=&quot;box-sizing: border-box; background-color: var(--bgColor-default, var(--color-canvas-default)); border-top: 1px solid var(--borderColor-muted, var(--color-border-muted));&quot;&gt;&lt;td style=&quot;box-sizing: border-box; padding: 6px 13px; border: 1px solid var(--borderColor-default, var(--color-border-default));&quot;&gt;Arduino&lt;/td&gt;&lt;td style=&quot;box-sizing: border-box; padding: 6px 13px; border: 1px solid var(--borderColor-default, var(--color-border-default));&quot;&gt;esp32&lt;/td&gt;&lt;td style=&quot;box-sizing: border-box; padding: 6px 13px; border: 1px solid var(--borderColor-default, var(--color-border-default));&quot;&gt;wasm3&lt;/td&gt;&lt;td style=&quot;box-sizing: border-box; padding: 6px 13px; border: 1px solid var(--borderColor-default, var(--color-border-default));&quot;&gt;ST7735 TFT&lt;/td&gt;&lt;td style=&quot;box-sizing: border-box; padding: 6px 13px; border: 1px solid var(--borderColor-default, var(--color-border-default));&quot;&gt;C / C++&lt;/td&gt;&lt;td style=&quot;box-sizing: border-box; padding: 6px 13px; border: 1px solid var(--borderColor-default, var(--color-border-default));&quot;&gt;&lt;a href=&quot;https://github.com/wuhanstudio/wasm-embedded/blob/master/arduino&quot; style=&quot;box-sizing: border-box; background-color: transparent; color: var(--fgColor-accent, var(--color-accent-fg)); text-decoration: underline; text-underline-offset: 0.2rem; margin-bottom: 0px;&quot;&gt;Click here&lt;/a&gt;&lt;/td&gt;&lt;/tr&gt;&lt;/tbody&gt;&lt;/table&gt;" link="&lt;table style=&quot;box-sizing: border-box; border-spacing: 0px; border-collapse: collapse; margin-top: 0px; margin-bottom: var(--base-size-16); display: block; width: max-content; max-width: 100%; overflow: auto; color: rgb(31, 35, 40); font-family: -apple-system, BlinkMacSystemFont, &amp;quot;Segoe UI&amp;quot;, &amp;quot;Noto Sans&amp;quot;, Helvetica, Arial, sans-serif, &amp;quot;Apple Color Emoji&amp;quot;, &amp;quot;Segoe UI Emoji&amp;quot;; font-size: 16px; font-style: normal; font-variant-ligatures: normal; font-variant-caps: normal; font-weight: 400; letter-spacing: normal; orphans: 2; text-align: start; text-transform: none; widows: 2; word-spacing: 0px; -webkit-text-stroke-width: 0px; white-space: normal; background-color: rgb(255, 255, 255); text-decoration-thickness: initial; text-decoration-style: initial; text-decoration-color: initial;&quot;&gt;&lt;thead style=&quot;box-sizing: border-box;&quot;&gt;&lt;tr style=&quot;box-sizing: border-box; background-color: var(--bgColor-default, var(--color-canvas-default)); border-top: 1px solid var(--borderColor-muted, var(--color-border-muted));&quot;&gt;&lt;th style=&quot;box-sizing: border-box; padding: 6px 13px; font-weight: var(--base-text-weight-semibold, 600); border: 1px solid var(--borderColor-default, var(--color-border-default));&quot;&gt;Platform&lt;/th&gt;&lt;th style=&quot;box-sizing: border-box; padding: 6px 13px; font-weight: var(--base-text-weight-semibold, 600); border: 1px solid var(--borderColor-default, var(--color-border-default));&quot;&gt;Hardware&lt;/th&gt;&lt;th style=&quot;box-sizing: border-box; padding: 6px 13px; font-weight: var(--base-text-weight-semibold, 600); border: 1px solid var(--borderColor-default, var(--color-border-default));&quot;&gt;Runtime&lt;/th&gt;&lt;th style=&quot;box-sizing: border-box; padding: 6px 13px; font-weight: var(--base-text-weight-semibold, 600); border: 1px solid var(--borderColor-default, var(--color-border-default));&quot;&gt;GUI&lt;/th&gt;&lt;th style=&quot;box-sizing: border-box; padding: 6px 13px; font-weight: var(--base-text-weight-semibold, 600); border: 1px solid var(--borderColor-default, var(--color-border-default));&quot;&gt;Language&lt;/th&gt;&lt;th style=&quot;box-sizing: border-box; padding: 6px 13px; font-weight: var(--base-text-weight-semibold, 600); border: 1px solid var(--borderColor-default, var(--color-border-default));&quot;&gt;Demo&lt;/th&gt;&lt;/tr&gt;&lt;/thead&gt;&lt;tbody style=&quot;box-sizing: border-box;&quot;&gt;&lt;tr style=&quot;box-sizing: border-box; background-color: var(--bgColor-default, var(--color-canvas-default)); border-top: 1px solid var(--borderColor-muted, var(--color-border-muted));&quot;&gt;&lt;td style=&quot;box-sizing: border-box; padding: 6px 13px; border: 1px solid var(--borderColor-default, var(--color-border-default));&quot;&gt;Browser&lt;/td&gt;&lt;td style=&quot;box-sizing: border-box; padding: 6px 13px; border: 1px solid var(--borderColor-default, var(--color-border-default));&quot;&gt;x64&lt;/td&gt;&lt;td style=&quot;box-sizing: border-box; padding: 6px 13px; border: 1px solid var(--borderColor-default, var(--color-border-default));&quot;&gt;v8 engine (Chrome)&lt;/td&gt;&lt;td style=&quot;box-sizing: border-box; padding: 6px 13px; border: 1px solid var(--borderColor-default, var(--color-border-default));&quot;&gt;canvas&lt;/td&gt;&lt;td style=&quot;box-sizing: border-box; padding: 6px 13px; border: 1px solid var(--borderColor-default, var(--color-border-default));&quot;&gt;Javascript&lt;/td&gt;&lt;td style=&quot;box-sizing: border-box; padding: 6px 13px; border: 1px solid var(--borderColor-default, var(--color-border-default));&quot;&gt;&lt;a href=&quot;https://github.com/wuhanstudio/wasm-embedded/blob/master/browser&quot; style=&quot;box-sizing: border-box; background-color: transparent; color: var(--fgColor-accent, var(--color-accent-fg)); text-decoration: underline; text-underline-offset: 0.2rem; margin-bottom: 0px;&quot;&gt;Click here&lt;/a&gt;&lt;/td&gt;&lt;/tr&gt;&lt;tr style=&quot;box-sizing: border-box; background-color: var(--bgColor-muted, var(--color-canvas-subtle)); border-top: 1px solid var(--borderColor-muted, var(--color-border-muted));&quot;&gt;&lt;td style=&quot;box-sizing: border-box; padding: 6px 13px; border: 1px solid var(--borderColor-default, var(--color-border-default));&quot;&gt;Linux x64&lt;/td&gt;&lt;td style=&quot;box-sizing: border-box; padding: 6px 13px; border: 1px solid var(--borderColor-default, var(--color-border-default));&quot;&gt;x64&lt;/td&gt;&lt;td style=&quot;box-sizing: border-box; padding: 6px 13px; border: 1px solid var(--borderColor-default, var(--color-border-default));&quot;&gt;wasm3&lt;/td&gt;&lt;td style=&quot;box-sizing: border-box; padding: 6px 13px; border: 1px solid var(--borderColor-default, var(--color-border-default));&quot;&gt;pygame&lt;/td&gt;&lt;td style=&quot;box-sizing: border-box; padding: 6px 13px; border: 1px solid var(--borderColor-default, var(--color-border-default));&quot;&gt;Python&lt;/td&gt;&lt;td style=&quot;box-sizing: border-box; padding: 6px 13px; border: 1px solid var(--borderColor-default, var(--color-border-default));&quot;&gt;&lt;a href=&quot;https://github.com/wuhanstudio/wasm-embedded/blob/master/linux&quot; style=&quot;box-sizing: border-box; background-color: transparent; color: var(--fgColor-accent, var(--color-accent-fg)); text-decoration: underline; text-underline-offset: 0.2rem; margin-bottom: 0px;&quot;&gt;Click here&lt;/a&gt;&lt;/td&gt;&lt;/tr&gt;&lt;tr style=&quot;box-sizing: border-box; background-color: var(--bgColor-default, var(--color-canvas-default)); border-top: 1px solid var(--borderColor-muted, var(--color-border-muted));&quot;&gt;&lt;td style=&quot;box-sizing: border-box; padding: 6px 13px; border: 1px solid var(--borderColor-default, var(--color-border-default));&quot;&gt;Arm Linux&lt;/td&gt;&lt;td style=&quot;box-sizing: border-box; padding: 6px 13px; border: 1px solid var(--borderColor-default, var(--color-border-default));&quot;&gt;aarch64 / armhf&lt;/td&gt;&lt;td style=&quot;box-sizing: border-box; padding: 6px 13px; border: 1px solid var(--borderColor-default, var(--color-border-default));&quot;&gt;wasm3&lt;/td&gt;&lt;td style=&quot;box-sizing: border-box; padding: 6px 13px; border: 1px solid var(--borderColor-default, var(--color-border-default));&quot;&gt;framebuffer&lt;/td&gt;&lt;td style=&quot;box-sizing: border-box; padding: 6px 13px; border: 1px solid var(--borderColor-default, var(--color-border-default));&quot;&gt;Python&lt;/td&gt;&lt;td style=&quot;box-sizing: border-box; padding: 6px 13px; border: 1px solid var(--borderColor-default, var(--color-border-default));&quot;&gt;&lt;a href=&quot;https://github.com/wuhanstudio/wasm-embedded/blob/master/arm-linux&quot; style=&quot;box-sizing: border-box; background-color: transparent; color: var(--fgColor-accent, var(--color-accent-fg)); text-decoration: underline; text-underline-offset: 0.2rem; margin-bottom: 0px;&quot;&gt;Click here&lt;/a&gt;&lt;/td&gt;&lt;/tr&gt;&lt;tr style=&quot;box-sizing: border-box; background-color: var(--bgColor-muted, var(--color-canvas-subtle)); border-top: 1px solid var(--borderColor-muted, var(--color-border-muted));&quot;&gt;&lt;td style=&quot;box-sizing: border-box; padding: 6px 13px; border: 1px solid var(--borderColor-default, var(--color-border-default));&quot;&gt;RTOS&lt;/td&gt;&lt;td style=&quot;box-sizing: border-box; padding: 6px 13px; border: 1px solid var(--borderColor-default, var(--color-border-default));&quot;&gt;Cortex-M&lt;/td&gt;&lt;td style=&quot;box-sizing: border-box; padding: 6px 13px; border: 1px solid var(--borderColor-default, var(--color-border-default));&quot;&gt;WAMR&lt;/td&gt;&lt;td style=&quot;box-sizing: border-box; padding: 6px 13px; border: 1px solid var(--borderColor-default, var(--color-border-default));&quot;&gt;LVGL&lt;/td&gt;&lt;td style=&quot;box-sizing: border-box; padding: 6px 13px; border: 1px solid var(--borderColor-default, var(--color-border-default));&quot;&gt;C / C++&lt;/td&gt;&lt;td style=&quot;box-sizing: border-box; padding: 6px 13px; border: 1px solid var(--borderColor-default, var(--color-border-default));&quot;&gt;&lt;a href=&quot;https://github.com/wuhanstudio/wasm-embedded/blob/master/rtos&quot; style=&quot;box-sizing: border-box; background-color: transparent; color: var(--fgColor-accent, var(--color-accent-fg)); text-decoration: underline; text-underline-offset: 0.2rem; margin-bottom: 0px;&quot;&gt;Click here&lt;/a&gt;&lt;/td&gt;&lt;/tr&gt;&lt;tr style=&quot;box-sizing: border-box; background-color: var(--bgColor-default, var(--color-canvas-default)); border-top: 1px solid var(--borderColor-muted, var(--color-border-muted));&quot;&gt;&lt;td style=&quot;box-sizing: border-box; padding: 6px 13px; border: 1px solid var(--borderColor-default, var(--color-border-default));&quot;&gt;Arduino&lt;/td&gt;&lt;td style=&quot;box-sizing: border-box; padding: 6px 13px; border: 1px solid var(--borderColor-default, var(--color-border-default));&quot;&gt;esp32&lt;/td&gt;&lt;td style=&quot;box-sizing: border-box; padding: 6px 13px; border: 1px solid var(--borderColor-default, var(--color-border-default));&quot;&gt;wasm3&lt;/td&gt;&lt;td style=&quot;box-sizing: border-box; padding: 6px 13px; border: 1px solid var(--borderColor-default, var(--color-border-default));&quot;&gt;ST7735 TFT&lt;/td&gt;&lt;td style=&quot;box-sizing: border-box; padding: 6px 13px; border: 1px solid var(--borderColor-default, var(--color-border-default));&quot;&gt;C / C++&lt;/td&gt;&lt;td style=&quot;box-sizing: border-box; padding: 6px 13px; border: 1px solid var(--borderColor-default, var(--color-border-default));&quot;&gt;&lt;a href=&quot;https://github.com/wuhanstudio/wasm-embedded/blob/master/arduino&quot; style=&quot;box-sizing: border-box; background-color: transparent; color: var(--fgColor-accent, var(--color-accent-fg)); text-decoration: underline; text-underline-offset: 0.2rem; margin-bottom: 0px;&quot;&gt;Click here&lt;/a&gt;&lt;/td&gt;&lt;/tr&gt;&lt;/tbody&gt;&lt;/table&gt;" id="af7otZp4B_gTomQ4dQiQ-15">
          <mxCell style="text;whiteSpace=wrap;html=1;" vertex="1" parent="1">
            <mxGeometry x="900" y="742.67" width="700" height="200" as="geometry" />
          </mxCell>
        </UserObject>
        <mxCell id="af7otZp4B_gTomQ4dQiQ-18" value="WASI Support (GPIO I2C SPI)" style="text;html=1;align=center;verticalAlign=middle;whiteSpace=wrap;rounded=0;" vertex="1" parent="1">
          <mxGeometry x="940" y="327.97" width="180" height="30" as="geometry" />
        </mxCell>
        <mxCell id="af7otZp4B_gTomQ4dQiQ-20" value="GitHub Source Code" style="text;html=1;align=center;verticalAlign=middle;whiteSpace=wrap;rounded=0;" vertex="1" parent="1">
          <mxGeometry x="1130" y="970" width="256.5" height="30" as="geometry" />
        </mxCell>
        <mxCell id="af7otZp4B_gTomQ4dQiQ-23" value="Code" style="text;html=1;align=center;verticalAlign=middle;whiteSpace=wrap;rounded=0;" vertex="1" parent="1">
          <mxGeometry x="1203.5" y="450" width="120" height="30" as="geometry" />
        </mxCell>
        <mxCell id="af7otZp4B_gTomQ4dQiQ-43" style="edgeStyle=orthogonalEdgeStyle;rounded=0;orthogonalLoop=1;jettySize=auto;html=1;strokeWidth=4;fontSize=8;" edge="1" parent="1">
          <mxGeometry relative="1" as="geometry">
            <mxPoint x="290.69" y="847.45" as="sourcePoint" />
            <mxPoint x="393.19" y="847.88" as="targetPoint" />
          </mxGeometry>
        </mxCell>
        <mxCell id="af7otZp4B_gTomQ4dQiQ-26" value="&lt;font style=&quot;font-size: 15px;&quot;&gt;Chrome V8 (WASM Runtime)&lt;/font&gt;" style="rounded=1;whiteSpace=wrap;html=1;fontStyle=1;align=center;" vertex="1" parent="1">
          <mxGeometry x="422.19" y="920.6" width="266" height="29.65" as="geometry" />
        </mxCell>
        <mxCell id="af7otZp4B_gTomQ4dQiQ-37" value="" style="shape=image;verticalLabelPosition=bottom;labelBackgroundColor=default;verticalAlign=top;aspect=fixed;imageAspect=0;image=data:image/webp,UklGRvoHAABXRUJQVlA4TO4HAAAv/8F/EJDgtpEkSfz/t6unwxE9u5uxV0ZIoLbteJvnT5UqyVBltW1jtpV19jLbts12tm1vtW3bSo3gfycArv+v/6//r/+v/6//r/+vCwm4Gmw8EfGKEhlvMFeC7wWHq41uCVePllWdMLds5ILzLTC01ltNaG01em0N4YfhEvlMhpaXQhQxrc9hLlQHWmHtQph9BgePyNAaU3jFbp5BnlOgVabwmMEsyjZqQ+us007Kg3hLRystlccUjI360FKT2YkZge81Wmwf9B/AQTlabSXs2nhrRMutRUCTCbrQeusyvoWIDC04qRkNhulFK67P6BhP7WjJtXMPsdSA1lwdswiuFLTo0nETQtGquxIgQstuRomhtm0jIax4g9bd84KxaCaZVE/ss8Y8ogW1xCan/dLUhox4C1fhBO3umo4Hm4oj0EWtTfKovmM76pdtOS3YVzw7tbYgm96grrZNgbk4sLOE3rSopvaVdaiZ1Clc2Fti0gZk1RdUlDXJ4gCra4zuBiVUXpmHej2gActrpO4cMueVXy1Yh2B/ibA5318YRN5BYRlssNM5cgYPO1Ej1mpYYcqSYsiWh4wOO2GJuZHHpAAAIWr0FNbYnRiWPoD5DTJo7BGhnhQyB8DdHBkPWGS3Y24BKMk5ApvMHptSBPRRXDWNVQJxKUTXkJwVsMs2xAQSx1RRWSZGMcudj9kH3TgM2fNgSzjPQFY8ODGhMo4Gc27cmdM6PSAv5YzPKQoGLVRMdFmKHvTULtYpQ3HGcHfAP83oSSrHHXNojWFgjdfKsOip0gcbGR8dISkfJaREQyMDZzSi95Xbgz+BGrEs9L4Od9iMMMxXcvQ2hb/GY86NFSmxclJ252g4rgfVSWyg3CZYJapTuGtgG0dhKCie57HhlZKtKmVwjJdilJXAvMcAn1BWk0k9OPaQoiiFE5QPjX4pFdpCWPyUxfpQWqtRHRyUozTWEUwDTV9Q3H+CMwM6QiTkIdUQthmL8vrMyPHSjBqFYmJ4YlCjDDpnRmGIHIVlhizFok59RqbYaUStzqRw/UOtEmkfGWkhbEp0hrc+1EvCLENLLmq2MOQWavb6yIgJxf2P4ClH3eIoRTxC3TpYRMxE7VacGBEh7CQXUb81CYOxbcjPBG1VfVroHjjmZAM00a5hpKKBRgccQQNdO3BC0ETbayagicJreFom6KF/3GjqGKEIU/J5BOJYIkYj7TxuFqCZ/Cp0SGc4XhI+Q+Zx82SIQxXBaKakCm3SGYjhaVMxRFjF9SEU+AVj0FBzDxsedoiGirAhiE/B1imOHTZuaCpBQdUU8wpuTPHysBk+hklB5xRrC55N8fOwmTCGQ4Fiih0F76eIOmyGj2Fa0DXFuoLnU/w6bNzH6FdQPcX8gpApXh02/CmaoShiCt+CbVOcOGygaoiIipAhFAQF46eYf9o8H+JIxdwhUqCITz6EyWmzeIjACj2yGU5VQNQMOXDa8HSNUIapgO8zOJWsmWHPcQN3RtgDZVNGiIEygbYJeg06b6zIB5Dg1zAyJ5hQAycnCIXzBq4PsAmCRg8QhgngqenTTnjiCFS3SaacAC/adLOBpHl91sGJA4PJm3SwhSiBki7LIOtBly+YMwfW9pCZCGHOJD2uQZiGmB4ZBHDowL4OMgshLkh7h8c4KdBfaod8Qjh2YC1ZTKfJ0MhDbc55HMjj+5sTRwcOHghSGZLBDlrp+xPSJhhaKTtOkcG6TA2OHuC5RBbQaTdVaMZYoiGA9YIQunlJSMgQBMf22wBgJkR7QYMTdGAgTVuUFvR5yRUGYkwSgS2INwsHFgCAhtnuKaR4QSrLNROpwFCMwc5I0PtKpReW6w9TWdjhu+ZXWv2xhx0c3W/licuBj5G82FCB4TjMeBjBnzNtmE6Hu8GG8KAPx/fbWdjrv2nyiRdaYWj/sdd/13//LySbaKFlh+LCYKGFhbDXf9d/13/Xf9d/13/Xf9d/13/Xf9d/13/Xf9d/13/Xf9d/13/Xf9d/13/Xf9d/13/Xf9d/13/Xfz3k20embfu0qAyJ2CgRIeVyQ9I2SmJIlviQso2SHRLrc4gMd6E0hHxwPoR47xMNFHbaipTN+8Q5ZakhKdH7ZFlKAL0UBdN1citFB5SEkKvbhFEZUgDgTko34TLxQmGhAOankNfL5FbKLADCGDJtlfTXGcLSAQBpMa2sN8lZFJYIAGBbDMmls0csdKdsfBCSx5B0A7cIRzgKk9F7gB85JIfFEjmF0r7AS3MakCajVogYxc16RUVJA8K6SXN/rKWIKab8CqzuQEilhZjdwXUZ5S2HL3FVtyAkwQycxTFSDsqroPoV2NyEkEJ7GC2NIb6iTuvgTWryuhCiEOsgf+rLQombgzJRqywq74CRfU8y6V45ZyOxYKIFtYDYXrf9046asYbA+16MWGaPoEhIsm2a6VXAJOyuYU2Fuqu75hwEqUnaNAlUE8BM7Z6pZgxZTiRbpo0rpA3Vs2N6DIa8GaQbps9U6DRC+37pNBZ6eWnYLs38oJut4t1SwAr68bzYLO8IYCSx3q3SayNM5S5lpyRygbk4FmraJxIbKcFo+h5S7BK5e3RhPHOX9e4RqUds4COZuq5th7S6yhg+Ftckr0i3h9xvC2nCZ9Mn9kL93qjz3HK68B1iOFkv1H8126LaP6HWccTAt4rHRaCxRFYQL6gVRMYK5IIH1//X/9f/1//X/9f/1//XhQ==;" vertex="1" parent="1">
          <mxGeometry x="552.69" y="778.9200000000001" width="136.5" height="136.5" as="geometry" />
        </mxCell>
        <mxCell id="af7otZp4B_gTomQ4dQiQ-38" value="" style="shape=image;verticalLabelPosition=bottom;labelBackgroundColor=default;verticalAlign=top;aspect=fixed;imageAspect=0;image=https://cdn-icons-png.flaticon.com/512/6528/6528597.png;" vertex="1" parent="1">
          <mxGeometry x="1290" y="455" width="20" height="20" as="geometry" />
        </mxCell>
        <mxCell id="af7otZp4B_gTomQ4dQiQ-42" value="" style="shape=image;verticalLabelPosition=bottom;labelBackgroundColor=default;verticalAlign=top;aspect=fixed;imageAspect=0;image=data:image/png,iVBORw0KGgoAAAANSUhEUgAAAMoAAAD5CAMAAABRVVqZAAABKVBMVEX///8B/wEBAf//AQEFBQUAAACPj4/b/9uHh4fo6Ohubm739/fz8/Pw8PDa2tq3t7fq6uqlpaW5ubnFxcUMDAz1//X6+v98fHzLy8urq6vW1tZMTEzR0dH/4uL/vb14/3hmZv9j/2NlZWWZmZn/8fH/ior/cXH/rq7/3d3/TEz/Hx//6+vi/+Lr6/++/75V/1Xc3P+Zmf+MjP/Q0P/AwP+1tf9qav+N/40vLy//k5P/ODj/enr/hYX/x8f/0dH/ubkn/ydB/0Gh/6HT/9PIyP/I/8iCgv94eP+9vf9dXf+D/4Pr/+utrf8pKf9ERERXV1cfHx//X1//Jib/o6P/V1es/6zj4/+jo/9ERP/y8v+2/7aZ/5khIf89Pf+Skv9b/1soKChPT/9BQf/DMT3tAAAQfElEQVR4nO1d+V/bNhQPpqYJgdwlAbJCkt6jx9oO0nVrA23pQQu09L7G9v//EbMtyZYs6T1ZceywT76/rIn9nPeVnt4lmRUKE8Sla49PLj+84uPhg6t//TLJ35ogHp28nZfw7srjX/NWLCEuXpFpMNy4/Chv9Yzx6KGeB2VzcilvJU1w8Q+MSIAr1/JWFMPjG0ZEfLyfai/wyGxGwpmZXjMD1roGV/NWWY2/EhPxcH0aJwZ1WxpczFvxOC4lWyU8/sxbdxHXrIl4eJ+39jyslkmEP6ZnwVwcj4kX/aeFy9hMpobLmNZF8C5vFj7GWvERrufNw/PC6TDxspi8mRSup0Vl/iRnJpdTYzI/n2/a/yhFJvM3cqViXp2YIM8U5s9UmeRpYr+kzGT+j9yovE+byvzjnJikuuYpcqKSXkiJkE+FPIlJyckhK/qoKrx7e/nk5MFD03X1Vw5MfjVR7PrVKHu/9sBIIgcqJ7hab+NxwqThl0OjD9XqhqrLjc/Mg8yZoGXKW0u57IswbHi1+dSld4hk5haG9L2AzLCMmGbWdQtSPIKtLcT3Zd0WQ3oTcAMFadFkRIEBrh6xPjAcXTNO9cHgjebqsIllnIeBuuDJB7gTk20xCa56g5QQjC7ZrntQFZN4DTnkbLNj0AeZbMuDXYGJq8/j6riaPIYekGkvHEqLjXoNoIVmenYEysCMVi3oNzLNwqAIqUmJYzgTVMxa8meCyhmbFWjZG1XnYGMz02U/tjMGM+tMnTEYFkzsAyxCJ64+D7CdZ1IGgkXoxNXnAWbpBotlXPk0AaliYGGgfT3MQH8OoIHgkQUciYz7FPCRKWxa4M5TxgdeQW+MWTuyW5bxIRFEG7j6gntome/iwVTAngtyxPJyZhwosPOF+lYFJpn52XD0vJGuBYTuMGVKIwCm0fyVskLqGtb8zjqq+MBPsCrWr8FOfw7vHuDnwFTLBT1Vncu+KnYcV1njo8fHcjlKBSb687qQj20xqRbY5AFv+eg6v7BU5kGFAE5edFLw5kpeJ1uhAdbvLEDnSXKaFHCAgUQKcn3Z6R6HfoCh6KCPSHmdoSoAdS3YC9M65FzPGuv6YXAny05q0lCbGLZZpE7Ecn5bSm0smJQyrc79+LeqI4avXsUG8xS8YCAHSoOKVuEvpuG1D6mrb3KEQNqLnI6XV2Nxwmp/JY9zhiqIRYiZpVydSiaiuZgWHHy5M01vrUdBz7gK5FzfdKwThjCzNDcV1nqZolcJCX4hETxBGnUpiZfIFoEjS7IjGtTGOSbDAB4lbWLNz7+fNuMK8WcyzS5O3VvdM8wwg4wLHvLWYUxsff3W251jGN3e2Ht2Filt7d2eU2G08fVM0dnaGSl5UNz+cFbYfN2FeBBsnM9bSwN8w3kE2H2Wt6YI9gyJBGSe5K0tgFsJiPiwXzJPfya7f/NmotsvqH2WHnvJ1Imwsuk4H5MIfHKc3xLcnnRK5kbJ9I/w1PHwTwKBFV/gh/HEbCRlMme77vedAE/NJZ4TiRdGN1/YTczkth2Rlc9EL+e7schHKuHcNbh5KzGRubktKyY3nRDG1v85FHmJ3vvEgskrKyZ3HA5fzGTucyL/rqTPZG58Js5zMyFB5gfIxYrJh/GZOM4dE6HfRJkfwK0268TOEd+MMXE+Gwh9iQvpvfgFGyZzNjnLyve4VibudVsS2tbdumvDpGfBpPCPpJTjoEJxm/TxSX3rK6tJObBgclehlIOmYj9UUvdUdybOVgLsWDB5qtLJcZBs5He1lMKN2S0UG0e8otZJb/gEGqlN+c6eFZOvFlSea5RSGwvDT53U/fidz6yY7FowuafTCYwTkveOEL8VbEZoYVPWK1cvwe96qU29VCyzTFL9RtiwYKJZvQTaVEQ/lU7cX1gxsaqCIZ30qfsbSEpI4Owm5ZsFk9cgFZ1DTiBlNykWTApyxiJAXYXo3DfDfnSrYXTc+PBk6+Bg69be38HHWxZMNNExgtIh72NS0RrbNeEheKtbu1aOuPASU+qNQugjJuS8Zrca5PYb0gp/ZuOIgejAIEU8IKaGCCMS3lBNqy38CVVKaWC4GGulYeHRsqGiABAeA3zWBBZVfi+A9jkw+7KqSJTA7EvfRcEkqYV9yGpO4EgPF8UYF9Ky6YFMRukxwdYv2EEBUxdWT8OTkuZ2AxwfwRwfCy5BlDwAmdhkjDpIHRMBSOWFZG/BYoFDfZpbjXCoR7vzcCLm3wFGlTQnBQ4P6KQg0+JHFnALItWNOdDakZXiQ9moYfA3NsANrjSZwAmYgTzoxPw0LDP7AuunTZMHQFR+IlSsOttWmmjajCJUTU2G5wiVdPewISpGe3hQiN1GWnmpHpQAa0GDVS9tSgjYRKgY7cwdnNeDfwBIxWh/BfLmL9OgsgM8gM+qJ04FXCtGBgbtAAguEKJiZGDaZqtDXCBExagTAQUmYccVogI0JiMALcogW4CoGHW6oCJU2LOAqJjsw4OBaR/RxKTsAjNrITBB5fC/Br8EZtZ+YPobUsXgB8AiVLBQeS+Rg8HOPViE+hYK7tsZ7J/sQvKCCwTTwde650cAc7h72KjifbvzkLhY7oCjqurliYDLe39W4WMH6JmiHiQ9Em6FW0DobjfcGfDvgDchR8jz4YEQ+05wFxs7fgQPBOk7wR09ZAsYFo5l1p9BbfbVv8AAbrHQnh6yXw9mxz1YNpYtQNHaUbaLIyCNJ5ItYFsSQCIGpV8+YrcjvSwoEYOSYh/0NkQffSaGMZGKUEQffSaGMdmk94FB0ocmuvQwOcn9gUHShya6oNsSzP3hm17y9ornu/D9cUkG3fRyNhVR/w684n2EPVpUJy+xjJE5j06JssmB6uQ4P2Ot449QPkwRNdGMzhxtRG+sHHzYNZFQrDEwdwkVux9Ozc3XsAOniNaY6em8Ue/Vzs4r05PhqqTHYAcvwJvt/Z93918i+8nh3dwvJD23bgRl3WZgLcnB121Wxz8RjFRM8K04Gwi/MIFp0RTT6HZ3cojFNJyq20BXHuCb8EkRz0OTv1KAQJu6oUcjkiLe2LQ8b6iFvnGOHVhJCnlb+Wu6VIDdshfpUlGkB6mufLCBlqpDVjXQ0jQxeF8mTRPbVP5CesFlBDJJM7joqmi7s3oKoCfCkVN35tC+8ZaSRzbYYErJIwMbTGgRZgKjnnkqSx/sme+Oz8TwQHgKCQzS0BzbJRsfbR+bC9qa7Y3HJMHZULTQh2GwI2P3GgtFoi1lpC0Gw2ibDDnqBmCU8L2c+7jGGnw3fPV2y+5dA4uzFzfxXooSBmd7GKwCjM0RarO+RRxmbxBTGDS5YuhZnhwzaHLFp8Tw1dYQybKY0RhHSPBTxDzeGK13ERfMXdnIyrZCrJi7su9Gm+IKMlh7m2B3PCIBGay9TfAj0SKJAf/rJ2n97ZMXaPR/bnR4BMCB5m/rEB5p/tmTm6+B817b95F30s1w4dmOPDmj3l76f4tm5elPmc73l5/GnQ8RB0++ftvZ6PV6G6929m6dn+DfB/py7/ff7u5vb25u79/9dP9OKrMxwwwzzDDDDDP8H7FcqlS6a5XKcm4aLHka+CjZP6JSXzx0eRwtNNNT0ASlantd1GCwRq6U6RdtlVifXqQfywvk47kIwefFMcYmGcqDlkqDVlWlriDIeJOPDfEZ/NPq2TCpajSgM9EgF92OLMkurTImSiLBLZlwqes1cP15KZPrKgvrUyrB6i4DTLxhycADlKCxDKzqyI3+LYKSHAYfBm4oJYB+WZw8lb6rUoBp5XufVTr23bhok14YBJ+G9JPnMRprldJyebm01hz0Xfb1xJkshz91VG96CizXSpVO/Yjxawe3aMZ1kV4oFbi7DmviTWX6LHdt0lTYkPfF/20cW9CB7RxqLIza12nwocmvG9VtE1/4fY2a/AKpq8dVtC+yVNxD+SeOtG4jXbTI7yzGv69SPf3JKqktjNlXhfukWt0LWpKpoqyb/TXeXobKqaOix+TTUGtGZFTcFvnB5QDBv5ebq/V6o6Nw07VOw7tUjV/jZMudqifb5ZYFG3ApTyrxS3qgsrAO/XJBIKZIuLrcBBeKYeqwOmTucrgq3N9ZbEWutNXnnki+8mJ19yhMsMLIXRGMRKBCUOHvEqynLYrqc4ISP8GBtXkzWTqO4pnrnkZJWmUoJB/eh8gnunRA21G4ct0+vaj3OyRHrpAZPFZY2Dnebgo1vcut8ZwJlcNYahAlAxU5YrvukkCl1hZl18nFBj/5eizIinbFmRIMUgSLON2Iyrq3ssRkgPmdYxbmuKvhwBMqvs6CLEsBjaisyRZWFNkxG6zJwku87VF35q+QdrFY7FOF2LQwfc71i/5VaoXsqTRP8mROPeH20OWNpUE/YP9f1ZZgTdw3zOYYFYU7YlSaERVvtbAJpvk0HVoag6pMthlcZX6RzdghXZ8dKltJQqUtzoE8T1399JZ557YgzR711cSIiObc5BOD7AtUjsKrDW4YmoZUYp43sq9u7AYzKpw2TP1gwivcKBMEQ8bmXrBFTnaQhEosHso+jVFRiKqoDLjrR0TbpUgdTptll9OPnz+CYTSLgF2IiEURtjTCxCohFT6SFqOlTbI94SH8upcTisOISsWUCgtA1MKYyYcREaCi8mB8SB5EX9F/NqoMDbqSShyVKie7HlFh4WCpgEHI6Aun8Zi5ph8TFlfWOCp8+KHa+kzZCowXgXRJglRqxlRYHV/iRyBKqIG4IkRPBZVGZHNiHI9ADRKkQotIVZCOgQWvYMGy/DIyeaavlMxFl8rGVFwJDZwKsxs5dWov+uiHSWuZ/kpQdsh1ZVmwBAFd3kvqqXRCKu5iHP2OORU5N6ft0ihaHUW2yKyfd4v0QQ2ZSpX34woqpCYPBmFB9mA8YCpDPm0oxG/iAy+rKxuRsfF6H8sBg0KoImEPRp2xrmcGU+nHNWagHMPwHppQOyx+BXfVl8O4OChtngo/CMVI/6o8Z+ZU6HPWZTEpHlGVWuE1Qe2BLm9gQ1DnqSiivS/YjWyNSS+2PSwaOGM2DpJ5dmQbYo2XEnO8qyqBfvxJbI11eSp8z4LkUaf+P0sS0QpZsgbOOIwHcQ1OZefKYlCdTYBo0iyaHRcbJTo15VpzIdadXBCI+aCrfpGjdRw9tcqvLZhKqEFr0KkRDcrL3UGoAG8vdPmss/+K5GkviQaFVov1Gui3iyKV0GeyeoXtgBDTZaNUOna5cUCo9NUa0C8FdVlgFIw/RIWL1LHWMze9IRXX7RcXikdhFVmmxOjlQ7/GDOtEvl7RU+nIGnBfCMuBV1aRo+iyjuBmlkKzeiVe27PrLTHe0w98V0dPhUZutQJcAcz9DrkmdxsXdfsbbpSsUSq1oTgsoSF3VR0XNqAYlfJQr0Eso1rgqSiCYfNQnFQ2vIfN2CPcGv+rrjuMZrjbivfBjsNKAqPirwFJg0CFw3ioWuN/QxnHKoN1rrXo47Rf5++MEpfVcCf5UMw1mn3+EX0uHJBv+LvJM/jOerMo7lB76/9ooNCVu+FYvkqxVGn6Hd/6aqPZrcUjJp+DkZ5xV1FgLHebVf8BHVGH5SUf/COXpG+oeKBBvdrslDRVZdmT8zvQCnFDKNLJs4oZlWnEjMo0YkZlGjGjMo2gJ8b+D1QGrWMPqibmlOA/wwXFiAfi2L0AAAAASUVORK5CYII=;" vertex="1" parent="1">
          <mxGeometry x="187.19" y="802.8" width="72" height="88.75" as="geometry" />
        </mxCell>
        <mxCell id="af7otZp4B_gTomQ4dQiQ-45" value="&lt;span style=&quot;color: rgb(0, 0, 0); font-family: Helvetica; font-size: 12px; font-style: normal; font-variant-ligatures: normal; font-variant-caps: normal; font-weight: 700; letter-spacing: normal; orphans: 2; text-indent: 0px; text-transform: none; widows: 2; word-spacing: 0px; -webkit-text-stroke-width: 0px; white-space: normal; background-color: rgb(251, 251, 251); text-decoration-thickness: initial; text-decoration-style: initial; text-decoration-color: initial; float: none; display: inline !important;&quot;&gt;C/C++ Libraries&lt;/span&gt;&lt;div style=&quot;&quot;&gt;&lt;span style=&quot;color: rgb(0, 0, 0); font-family: Helvetica; font-size: 12px; font-style: normal; font-variant-ligatures: normal; font-variant-caps: normal; font-weight: 700; letter-spacing: normal; orphans: 2; text-indent: 0px; text-transform: none; widows: 2; word-spacing: 0px; -webkit-text-stroke-width: 0px; white-space: normal; background-color: rgb(251, 251, 251); text-decoration-thickness: initial; text-decoration-style: initial; text-decoration-color: initial; float: none; display: inline !important;&quot;&gt;(OpenCV, Eigen, etc)&lt;/span&gt;&lt;/div&gt;" style="text;whiteSpace=wrap;html=1;align=center;" vertex="1" parent="1">
          <mxGeometry x="157.44" y="915.4199999999998" width="150" height="40" as="geometry" />
        </mxCell>
        <mxCell id="af7otZp4B_gTomQ4dQiQ-49" value="WASM Embedded (WASI Standard)" style="text;html=1;align=center;verticalAlign=middle;whiteSpace=wrap;rounded=0;" vertex="1" parent="1">
          <mxGeometry x="1161" y="518.19" width="256.5" height="30" as="geometry" />
        </mxCell>
        <mxCell id="af7otZp4B_gTomQ4dQiQ-53" value="" style="group" vertex="1" connectable="0" parent="1">
          <mxGeometry x="393.19" y="777.92" width="138.5" height="138.5" as="geometry" />
        </mxCell>
        <mxCell id="af7otZp4B_gTomQ4dQiQ-52" value="" style="shape=image;verticalLabelPosition=bottom;labelBackgroundColor=default;verticalAlign=top;aspect=fixed;imageAspect=0;image=data:image/png,iVBORw0KGgoAAAANSUhEUgAAAgAAAAIACAMAAADDpiTIAAAAilBMVEUAAAA4OEw1OEk1Nko2OEs0NkszM0w1N0o2Nks4OFQ1OEo3N002Nkg0Nks0OEs0Nkk2OEs1OEs2N0k1N0o0N0s0NEs1OEo1N0szOEs2OEs2OEsvP082N0k1NUk1OUk0OEw0OEs2Nk02OEo2Nks0Nkk2OEo2Nks0OEk2Nko/Pz82OEo0OUg2N0o2OEvkqzuBAAAALXRSTlMAMpnb+vsKnZsJwxcO98f85rrGd5witZg22Z8Q4TRMTbQhdbfkli/CwAiaMZfrZxnlAAAHk0lEQVR42u3X62IbVxlGYTtx0hZaKGdCCQVKOPv+bw9+N4kt6Rtrz2g96wr2fueRNLq7O6P7V68fHjXqzetX9+dsvqPefrF6vFvpy69WP8uLnv9PVu92Q/109dO8IJ//Lft69eM8u/vVk91W3xxOwKvVk91YPzuagNerF7u1jibA/7+tO5iA1XPdYMcSsHqtW+xQAlaPdZMdScDqrW6zAwlYPdWNdhwBq5e61Q4jYPVQN9tRBKze6XY7iIAfH3v1eY7W4QUAMOvw3wEAzDr8rwAAsw7/HgDArMO/CQIw6/D/BQCY9RyA3QsAYNazAPYuAIBZzwPYuQAAZp0AYN8CAJh1CoBdCwBg1kfP+mgCAJj14/2+PpoAAGZ9tN/RBAAw6+P9DiYAgFmf2O9YAgCY9an9DiUAgFmf3O9IAgCY9en9DiQAgFmf2e84AgCY9bn9DiMAgFmf3e8oAgCY9fn9DiIAgFlP7HcMAQDMemq/QwgAYNaT+x1BAACznt7vAAIAmPXMfvsXAMCs5/bbvQAAZj27394FADDr+f12LgCAWSfst28BAMw6Zb9dCwBg1kn77VkAALNO22/HAgCYdeJ++xUAwKxT99utAABmnbzfXgUAMOv0/XYqAIBZZ+y3TwEAzDpnv10KAGDWWfvtUQAAs87bb4cCAJh15n77EwDArHP3250AAGadvd/eBAAw6/z9diYAgFkX7LcvAQDMumS/XQkAYNZF++1JAACzLttvRwIAmHXhfvsRAMCsS/fbjQAAZl28314EADDr8v12IgCAWYP99iEAgFmT/XYhAIBZo/32IACAWbP9diAAgFnD/dYLAGDWdL/lAgCYNd5vtQAAZs33WywAgFkb7LdWAACztthvqQAAZm2y30oBAMzaZr+FAgCYtdF+6wQAMGur/ZYJAGDWZvutEgDArO32WyQAgFkb7rdGAACzttxviQAAZm263woBAMzadr8FAgCYtfF+1xcAwKyt97u6AABmbb7ftQUAMGv7/a4sAIBZL7DfdQUAMOvnj1frZQQAMOvb6wF4GQEAzPrFFQE8/vLt9hcAYNavrgng8dfbXwCAWb+5KoDH+80vAMCw314VwO82Pz8Aw35/VQDvNj8/ANP+cE0AD5sfH4Bp3/3xmgI2Pz4A495/A0C7P70BoN331/sO2PzsAGzR+6u9B2x+dAA26bsvAIj3/s8AxPvLX3/424u/Dm5+agD2HQDxAIgHQDwA4gEQD4B4AMQDIB4A8QCIB0A8AOIBEA+AeADEAyAeAPEAiAdAPADiARAPgHgAxAMgHgDxAIgHQDwA4gEQD4B4AMQDIB4A8QCIB0A8AOIBEA+AeADEAyAeAPEAiAdAPADiARAPgHgAxAMgHgDxAIgHQDwA4gEQD4B4AMQDIB4A8QCIB0A8AOIBEA+AeADEAyAeAPEAiAdAPADiARAPgHgAxAMgHgDxAIgHQDwA4gEQD4B4AMQDIB4A8QCIB0A8AOIBEA+AeADEAyAeAPEAiAdAPADiARAPgHgAxAMgHgDxAIgHQDwA4gEQD4B4AMQDIB4A8QCIB0A8AOIBEA+AeADEAyAeAPEAiAdAPADiARAPgHgAxAMgHgDxAIgHQDwA4gEQD4B4AMQDIB4A8QCIB0A8AOIBEA+AeADEAyAeAPEAiAdAPADiARAPgHgAxAMgHgDxAIgHQDwA4gEQD4B4AMQDIB4A8QCIB0A8AOIBEA+AeADEAyAeAPEAiAdAPADiARAPgHgAxAMgHgDxAIgHQDwA4gEQD4B4AMQDIB4A8QCIB0A8AOIBEA+AeADEAyAeAPEAiAdAPADiARAPgHgAxAMgHgDxAIgHQDwA4gEQD4B4AMQDIB4A8QCIB0A8AOIBEA+AeADEAyAeAPEAiAdAPADiARAPgHgAxAMgHgDxAIgHQDwA4gEQD4B4AMQDIB4A8QCIB0A8AOIBEA+AeADEAyAeAPEAiAdAPADiARAPgHgAxAMgHgDxAIgHQDwA4gEQD4B4AMQDIB4A8QCIB0A8AOIBEA+AeADEAyAeAPEAiAdAPADiARAPgHgAxAMgHgDxAIgHQDwA4gEQD4B4AMQDIB4A8QCIB0A8AOIBEA+AeADEAyAeAPEAiAdAPADiARAPgHgAxAMgHgDxAIgHQDwA4gEQD4B4AMQDIB4A8QCIB0A8AOIBEA+AeADEAyAeAPEAiAdAPADiARAPgHgAxAMgHgDxAIgHQDwA4gEQD4B4AMQDIB4A8QCIB0A8AOIBEA+AeADEAyAeAPEAiAdAPADiARAPgHgAxAMgHgDxAIgHQDwA4gEQD4B4AMQDIB4A8QCIB0A8AOIBEA+AeADEAyAeAPEAiAdAPADiARAPgHgAxAMgHgDxAIgHQDwA4gEQD4B4AMQDIB4A8QCIB0A8AOIBEA+AeADEAyAeAPEAiAdAPADiARAPgHgAxLs6AO07AOIBEA+AeADEAyAeAPEAiLc5gDerb6RzetgcwOvVV9I5vdscwKvVV9I5fdgcwP3qK+mc/r45gLsvV99Jp7f9F8Dd3Vf/WH0rndo///UCAO7e/nv1vXRaH17k+f+///z33cPqy+npHt59OOv3/395aCoIcRNUkQAAAABJRU5ErkJggg==;" vertex="1" parent="af7otZp4B_gTomQ4dQiQ-53">
          <mxGeometry x="20" y="20" width="98.5" height="98.5" as="geometry" />
        </mxCell>
        <mxCell id="af7otZp4B_gTomQ4dQiQ-50" value="WASM" style="text;html=1;align=center;verticalAlign=middle;whiteSpace=wrap;rounded=0;fontStyle=1" vertex="1" parent="af7otZp4B_gTomQ4dQiQ-53">
          <mxGeometry x="20" y="54.250000000000114" width="71.75" height="30" as="geometry" />
        </mxCell>
        <mxCell id="af7otZp4B_gTomQ4dQiQ-51" value="" style="shape=image;verticalLabelPosition=bottom;labelBackgroundColor=default;verticalAlign=top;aspect=fixed;imageAspect=0;image=https://cdn-icons-png.flaticon.com/512/6528/6528597.png;" vertex="1" parent="af7otZp4B_gTomQ4dQiQ-53">
          <mxGeometry x="81.75" y="59.250000000000114" width="20" height="20" as="geometry" />
        </mxCell>
        <mxCell id="af7otZp4B_gTomQ4dQiQ-54" value="&lt;div style=&quot;text-align: center; font-size: 12px;&quot;&gt;&lt;span style=&quot;background-color: initial; font-size: 12px;&quot;&gt;&lt;b style=&quot;font-size: 12px;&quot;&gt;Browser (JavaScript)&lt;/b&gt;&lt;/span&gt;&lt;/div&gt;" style="text;whiteSpace=wrap;html=1;fontSize=12;" vertex="1" parent="1">
          <mxGeometry x="556.1299999999999" y="770" width="129.62" height="26.46" as="geometry" />
        </mxCell>
        <mxCell id="af7otZp4B_gTomQ4dQiQ-55" value="&lt;font style=&quot;font-size: 15px;&quot;&gt;Chrome (V8&amp;nbsp;Runtime)&lt;/font&gt;" style="rounded=1;whiteSpace=wrap;html=1;fontStyle=1;align=center;" vertex="1" parent="1">
          <mxGeometry x="125.5" y="307.7799999999999" width="283.5" height="29.65" as="geometry" />
        </mxCell>
        <mxCell id="af7otZp4B_gTomQ4dQiQ-56" value="" style="shape=image;verticalLabelPosition=bottom;labelBackgroundColor=default;verticalAlign=top;aspect=fixed;imageAspect=0;image=data:image/webp,UklGRvoHAABXRUJQVlA4TO4HAAAv/8F/EJDgtpEkSfz/t6unwxE9u5uxV0ZIoLbteJvnT5UqyVBltW1jtpV19jLbts12tm1vtW3bSo3gfycArv+v/6//r/+v/6//r/+vCwm4Gmw8EfGKEhlvMFeC7wWHq41uCVePllWdMLds5ILzLTC01ltNaG01em0N4YfhEvlMhpaXQhQxrc9hLlQHWmHtQph9BgePyNAaU3jFbp5BnlOgVabwmMEsyjZqQ+us007Kg3hLRystlccUjI360FKT2YkZge81Wmwf9B/AQTlabSXs2nhrRMutRUCTCbrQeusyvoWIDC04qRkNhulFK67P6BhP7WjJtXMPsdSA1lwdswiuFLTo0nETQtGquxIgQstuRomhtm0jIax4g9bd84KxaCaZVE/ss8Y8ogW1xCan/dLUhox4C1fhBO3umo4Hm4oj0EWtTfKovmM76pdtOS3YVzw7tbYgm96grrZNgbk4sLOE3rSopvaVdaiZ1Clc2Fti0gZk1RdUlDXJ4gCra4zuBiVUXpmHej2gActrpO4cMueVXy1Yh2B/ibA5318YRN5BYRlssNM5cgYPO1Ej1mpYYcqSYsiWh4wOO2GJuZHHpAAAIWr0FNbYnRiWPoD5DTJo7BGhnhQyB8DdHBkPWGS3Y24BKMk5ApvMHptSBPRRXDWNVQJxKUTXkJwVsMs2xAQSx1RRWSZGMcudj9kH3TgM2fNgSzjPQFY8ODGhMo4Gc27cmdM6PSAv5YzPKQoGLVRMdFmKHvTULtYpQ3HGcHfAP83oSSrHHXNojWFgjdfKsOip0gcbGR8dISkfJaREQyMDZzSi95Xbgz+BGrEs9L4Od9iMMMxXcvQ2hb/GY86NFSmxclJ252g4rgfVSWyg3CZYJapTuGtgG0dhKCie57HhlZKtKmVwjJdilJXAvMcAn1BWk0k9OPaQoiiFE5QPjX4pFdpCWPyUxfpQWqtRHRyUozTWEUwDTV9Q3H+CMwM6QiTkIdUQthmL8vrMyPHSjBqFYmJ4YlCjDDpnRmGIHIVlhizFok59RqbYaUStzqRw/UOtEmkfGWkhbEp0hrc+1EvCLENLLmq2MOQWavb6yIgJxf2P4ClH3eIoRTxC3TpYRMxE7VacGBEh7CQXUb81CYOxbcjPBG1VfVroHjjmZAM00a5hpKKBRgccQQNdO3BC0ETbayagicJreFom6KF/3GjqGKEIU/J5BOJYIkYj7TxuFqCZ/Cp0SGc4XhI+Q+Zx82SIQxXBaKakCm3SGYjhaVMxRFjF9SEU+AVj0FBzDxsedoiGirAhiE/B1imOHTZuaCpBQdUU8wpuTPHysBk+hklB5xRrC55N8fOwmTCGQ4Fiih0F76eIOmyGj2Fa0DXFuoLnU/w6bNzH6FdQPcX8gpApXh02/CmaoShiCt+CbVOcOGygaoiIipAhFAQF46eYf9o8H+JIxdwhUqCITz6EyWmzeIjACj2yGU5VQNQMOXDa8HSNUIapgO8zOJWsmWHPcQN3RtgDZVNGiIEygbYJeg06b6zIB5Dg1zAyJ5hQAycnCIXzBq4PsAmCRg8QhgngqenTTnjiCFS3SaacAC/adLOBpHl91sGJA4PJm3SwhSiBki7LIOtBly+YMwfW9pCZCGHOJD2uQZiGmB4ZBHDowL4OMgshLkh7h8c4KdBfaod8Qjh2YC1ZTKfJ0MhDbc55HMjj+5sTRwcOHghSGZLBDlrp+xPSJhhaKTtOkcG6TA2OHuC5RBbQaTdVaMZYoiGA9YIQunlJSMgQBMf22wBgJkR7QYMTdGAgTVuUFvR5yRUGYkwSgS2INwsHFgCAhtnuKaR4QSrLNROpwFCMwc5I0PtKpReW6w9TWdjhu+ZXWv2xhx0c3W/licuBj5G82FCB4TjMeBjBnzNtmE6Hu8GG8KAPx/fbWdjrv2nyiRdaYWj/sdd/13//LySbaKFlh+LCYKGFhbDXf9d/13/Xf9d/13/Xf9d/13/Xf9d/13/Xf9d/13/Xf9d/13/Xf9d/13/Xf9d/13/Xf9d/13/Xfz3k20embfu0qAyJ2CgRIeVyQ9I2SmJIlviQso2SHRLrc4gMd6E0hHxwPoR47xMNFHbaipTN+8Q5ZakhKdH7ZFlKAL0UBdN1citFB5SEkKvbhFEZUgDgTko34TLxQmGhAOankNfL5FbKLADCGDJtlfTXGcLSAQBpMa2sN8lZFJYIAGBbDMmls0csdKdsfBCSx5B0A7cIRzgKk9F7gB85JIfFEjmF0r7AS3MakCajVogYxc16RUVJA8K6SXN/rKWIKab8CqzuQEilhZjdwXUZ5S2HL3FVtyAkwQycxTFSDsqroPoV2NyEkEJ7GC2NIb6iTuvgTWryuhCiEOsgf+rLQombgzJRqywq74CRfU8y6V45ZyOxYKIFtYDYXrf9046asYbA+16MWGaPoEhIsm2a6VXAJOyuYU2Fuqu75hwEqUnaNAlUE8BM7Z6pZgxZTiRbpo0rpA3Vs2N6DIa8GaQbps9U6DRC+37pNBZ6eWnYLs38oJut4t1SwAr68bzYLO8IYCSx3q3SayNM5S5lpyRygbk4FmraJxIbKcFo+h5S7BK5e3RhPHOX9e4RqUds4COZuq5th7S6yhg+Ftckr0i3h9xvC2nCZ9Mn9kL93qjz3HK68B1iOFkv1H8126LaP6HWccTAt4rHRaCxRFYQL6gVRMYK5IIH1//X/9f/1//X/9f/1//XhQ==;" vertex="1" parent="1">
          <mxGeometry x="264" y="177" width="136.5" height="136.5" as="geometry" />
        </mxCell>
        <mxCell id="af7otZp4B_gTomQ4dQiQ-57" value="" style="shape=image;verticalLabelPosition=bottom;labelBackgroundColor=default;verticalAlign=top;aspect=fixed;imageAspect=0;image=data:image/png,iVBORw0KGgoAAAANSUhEUgAABCIAAAHHCAIAAADlAm6SAAAACXBIWXMAABYlAAAWJQFJUiTwAAAAEXRFWHRTb2Z0d2FyZQBTbmlwYXN0ZV0Xzt0AAAvESURBVHic7dxdbttGAEbRqvBWsiNpldSOshj2pegfiYClL0UNdc5jYCtDRXFyMcB3m+f5NwAAgM7vZx8AAAC4GpkBAADEZAYAABCTGQAAQExmAAAAMZkBAADEZAYAABCTGQAAQExmAAAAMZkBAADEZAYAABCTGQAAQExmAAAAMZkBAADEZAYAABCTGQAAQExmAAAAMZkBAADEZAYAABCTGQAAQExmAAAAMZkBAADEZAYAABCTGQAAQExmAAAAMZkBAADEZAYAABCTGQAAQExmAAAAMZkBAADEZAYAABCTGQAAQExmAAAAMZkBAADEZAYAABCTGQAAQExmAAAAMZkBAADEZAYAABCTGQAAQExmAAAAMZkBAADEZAYAABCTGQAAQExmAAAAMZkBAADEZAYAABCTGQAAQExmAAAAMZkBAADEZAYAABCTGQAAQExmAAAAMZkBAADEZAYAABCTGQAAQExmAAAAMZkBAADEZAYAABCTGQAAQExmAAAAMZkBAADEZAYAABCTGQAAQExmAAAAMZkBAADEZAYAABCTGQAAQExmAAAAMZkBAADEZAYAABCTGQAAQExmAAAAMZkBAADEZAYAABCTGQAAQExmAAAAMZkBAADEZAYAABCTGQAAQExmAAAAMZkBAADEZAYAABCTGQAAQExmAAAAMZkBAADEZAYAABCTGQAAQExmAAAAMZkBAADEZAYAABCTGQAAQExmAAAAMZkBAADEZAYAABCTGQAAQExmAAAAMZkBAADEZAYAABCTGQAAQExmAAAAMZkBAADEZAYAABCTGQAAQExmAAAAMZkBAADEZAYAABCTGQAAQExmAAAAMZkBAADEZAYAABCTGQAAQExmAAAAMZkBAADEZAYAABCTGQAAQExmAAAAMZkBAADEZAYAABCTGQAAQExmAAAAMZkBAADEZAYAABCTGQAAQExmAAAAMZkBAADEZAYAABCTGQAAQExmAAAAMZkBAADEZAYAABCTGQAAQExmAAAAMZkBAADEZAYAABCTGQAAQExmAAAAMZkBAADEZAYAABCTGQAAQExmAAAAMZkBAADEZAYAABCTGQAAQExmAAAAMZkBAADEZAYAABCTGQAAQExmAAAAMZkBAADEZAYAABCTGQAAQExmAAAAMZkBAADEZAYAABCTGQAAQExmAAAAMZkBAADEZAYAABCTGQAAQExmAAAAMZkBAADEZAYAABCTGQAAQExmAAAAMZkBAADEZAYAABCTGQAAQExmAAAAMZkBAADEZAYAABCTGQAAQExmAAAAMZkBAADEZAYAABCTGQAAQExmAAAAMZkBAADEZAYAABCTGQAAQExmAAAAMZkBAADEZAYAABCTGQAAQExmAAAAMZkBAADEZAYAABCTGQAAQExmAAAAMZkBAADEZAYAABCTGQAAQExmAAAAMZkBAADEZAYAABCTGQAAQExmAAAAMZkBAADEZAYAABCTGQAAQExmAAAAMZkBAADEZAYAABCTGQAAQExmAAAAMZkBAADEZAYAABCTGQAAQExmAAAAMZkBAADEZAYAABCTGQAAQExmAAAAMZkBAADEZAYAABCTGQAAQExmAAAAMZkBAADEZAYAABCTGQAAQExmAAAAsa+zDwAAL/Xz58/X/6Y/fvx4/W8KcCK3GQAAQExmAAAAMZkBAADEZAYAABCTGQAAQMzSFABXtnFX6uglqOUxbE8B1+Y2AwAAiMkMAAAgJjMAAICYzAAAAGIyAwAAiMkMAAAgZtAWgItY3a59291YE7fAtbnNAAAAYjIDAACIyQwAACAmMwAAgJjMAAAAYpamABjS6q7UO9g9ePWdJ7JSBbwbtxkAAEBMZgAAADGZAQAAxGQGAAAQkxkAAEBMZgAAALHbPM9nnwGAj9BO0Jpw/act7613DHgltxkAAEBMZgAAADGZAQAAxGQGAAAQkxkAAEDM0hQAh1huH1k6OtfqGpU/FOAgbjMAAICYzAAAAGIyAwAAiMkMAAAgJjMAAIDY19kHAABeYXVUyiAYcBC3GQAAQExmAAAAMZkBAADEZAYAABCTGQAAQExmAAAAMYO2APzKxsHTcBd1+VIADMdtBgAAEJMZAABATGYAAAAxmQEAAMRkBgAAELvN83z2GQAAgEtxmwEAAMRkBgAAEJMZAABATGYAAAAxmQEAAMRkBgAAEJMZAABATGYAAAAxmQEAAMRkBgAAEJMZAABATGYAAACxr7MPwId6PB5nH2HdNE1nHwEAYHhuMwAAgJjMAAAAYjIDAACIyQwAACAmMwAAgNhtnuezz8D1ve2u1EbmpwAA/he3GQAAQExmAAAAMZkBAADEZAYAABCTGQAAQExmAAAAsa+zDwB/W+7Gjr6ECwDwmdxmAAAAMZkBAADEZAYAABCTGQAAQExmAAAAMUtTvBG7UgAA1+A2AwAAiMkMAAAgJjMAAICYzAAAAGIyAwAAiMkMAAAgJjMAAICYzAAAAGIyAwAAiMkMAAAgJjMAAICYzAAAAGJfZx8AAOBN3e/3LV/2fD6PPsk+o5+fobnNAAAAYjIDAACIyQwAACAmMwAAgJjMAAAAYpamuIJpms4+AgCfaznoNNZ20+jn5z25zQAAAGIyAwAAiMkMAAAgJjMAAICYzAAAAGIyAwAAiBm05Qoej8e+b7SEC8CJNi7JLr9s6egJ2tUz2L3lF9xmAAAAMZkBAADEZAYAABCTGQAAQExmAAAAMUtTY1guKb3tRNLu0aeN3vbBAeAXtqxFDWfjUhafyW0GAAAQkxkAAEBMZgAAADGZAQAAxGQGAAAQkxkAAEDMoC3fcvR8LQB8n91VeD23GQAAQExmAAAAMZkBAADEZAYAABCTGQAAQMzS1KhWJ56maTr09d/BxoOFbwUA12N7Co7mNgMAAIjJDAAAICYzAACAmMwAAABiMgMAAIhZmrqU5QrTxsGlt92VWlp9ooHODwDwCdxmAAAAMZkBAADEZAYAABCTGQAAQExmAAAAMZkBAADEDNpe3IcsvW7c7QWAq7rf72cfAf7FbQYAABCTGQAAQExmAAAAMZkBAADEZAYAABCzNAUAEGt3n57P56GvD0dwmwEAAMRkBgAAEJMZAABATGYAAAAxmQEAAMRkBgAAEDNoO4Zpmv7zK4/H45STvNjywQHgMpZLte037t69NZjL97nNAAAAYjIDAACIyQwAACAmMwAAgJjMAAAAYpamRrU6wfQh81MAkGu3lXZPSI3lQx6TfdxmAAAAMZkBAADEZAYAABCTGQAAQExmAAAAsds8z2efgQONtT21Op8FALl2V2rpTSaYdj/mm5yfobnNAAAAYjIDAACIyQwAACAmMwAAgJjMAAAAYjIDAACI3Y4edAMAGNTu3f/b7daeZJ/Rz8/Q3GYAAAAxmQEAAMRkBgAAEJMZAABATGYAAACx2+4JAq7k8Xhs+bJpml75UgBwrt2DnM/nsz3JPqOfn6G5zQAAAGIyAwAAiMkMAAAgJjMAAICYzAAAAGIyAwAAiH2dfYA/LVdQ28HTo19/dMt3Y3WXdsvbuPrGbly5PZqPAa3Xf6JW/yr5GH8aHwMuwL/In8BtBgAAEJMZAABATGYAAAAxmQEAAMRkBgAAELvN83z2Ga5g45LSx64oGJSAIfhRBv9xv9/3fePz+WxPss/o59/NT7N34DYDAACIyQwAACAmMwAAgJjMAAAAYjIDAACIWZriFTYOPix9yATE6Etco58fvsOgzV9W34qBHnz1/Lv/m/QmS00fuzTF/3XEjzK3GQAAQExmAAAAMZkBAADEZAYAABCTGQAAQExmAAAAMYO2AADrRh+EHf38DM1tBgAAEJMZAABATGYAAAAxmQEAAMRkBgAAELM0BQAAxNxmAAAAMZkBAADEZAYAABCTGQAAQExmAAAAMZkBAADEZAYAABCTGQAAQExmAAAAMZkBAADEZAYAABCTGQAAQExmAAAAMZkBAADEZAYAABCTGQAAQExmAAAAMZkBAADEZAYAABCTGQAAQExmAAAAsT8A4lMfHpeXWmAAAAAASUVORK5CYII=;" vertex="1" parent="1">
          <mxGeometry x="277.95000000000005" y="233.15000000000003" width="108.61" height="46.71" as="geometry" />
        </mxCell>
        <mxCell id="af7otZp4B_gTomQ4dQiQ-58" value="" style="group" vertex="1" connectable="0" parent="1">
          <mxGeometry x="104" y="174.99999999999994" width="138.5" height="138.5" as="geometry" />
        </mxCell>
        <mxCell id="af7otZp4B_gTomQ4dQiQ-59" value="" style="shape=image;verticalLabelPosition=bottom;labelBackgroundColor=default;verticalAlign=top;aspect=fixed;imageAspect=0;image=data:image/png,iVBORw0KGgoAAAANSUhEUgAAAgAAAAIACAMAAADDpiTIAAAAilBMVEUAAAA4OEw1OEk1Nko2OEs0NkszM0w1N0o2Nks4OFQ1OEo3N002Nkg0Nks0OEs0Nkk2OEs1OEs2N0k1N0o0N0s0NEs1OEo1N0szOEs2OEs2OEsvP082N0k1NUk1OUk0OEw0OEs2Nk02OEo2Nks0Nkk2OEo2Nks0OEk2Nko/Pz82OEo0OUg2N0o2OEvkqzuBAAAALXRSTlMAMpnb+vsKnZsJwxcO98f85rrGd5witZg22Z8Q4TRMTbQhdbfkli/CwAiaMZfrZxnlAAAHk0lEQVR42u3X62IbVxlGYTtx0hZaKGdCCQVKOPv+bw9+N4kt6Rtrz2g96wr2fueRNLq7O6P7V68fHjXqzetX9+dsvqPefrF6vFvpy69WP8uLnv9PVu92Q/109dO8IJ//Lft69eM8u/vVk91W3xxOwKvVk91YPzuagNerF7u1jibA/7+tO5iA1XPdYMcSsHqtW+xQAlaPdZMdScDqrW6zAwlYPdWNdhwBq5e61Q4jYPVQN9tRBKze6XY7iIAfH3v1eY7W4QUAMOvw3wEAzDr8rwAAsw7/HgDArMO/CQIw6/D/BQCY9RyA3QsAYNazAPYuAIBZzwPYuQAAZp0AYN8CAJh1CoBdCwBg1kfP+mgCAJj14/2+PpoAAGZ9tN/RBAAw6+P9DiYAgFmf2O9YAgCY9an9DiUAgFmf3O9IAgCY9en9DiQAgFmf2e84AgCY9bn9DiMAgFmf3e8oAgCY9fn9DiIAgFlP7HcMAQDMemq/QwgAYNaT+x1BAACznt7vAAIAmPXMfvsXAMCs5/bbvQAAZj27394FADDr+f12LgCAWSfst28BAMw6Zb9dCwBg1kn77VkAALNO22/HAgCYdeJ++xUAwKxT99utAABmnbzfXgUAMOv0/XYqAIBZZ+y3TwEAzDpnv10KAGDWWfvtUQAAs87bb4cCAJh15n77EwDArHP3250AAGadvd/eBAAw6/z9diYAgFkX7LcvAQDMumS/XQkAYNZF++1JAACzLttvRwIAmHXhfvsRAMCsS/fbjQAAZl28314EADDr8v12IgCAWYP99iEAgFmT/XYhAIBZo/32IACAWbP9diAAgFnD/dYLAGDWdL/lAgCYNd5vtQAAZs33WywAgFkb7LdWAACztthvqQAAZm2y30oBAMzaZr+FAgCYtdF+6wQAMGur/ZYJAGDWZvutEgDArO32WyQAgFkb7rdGAACzttxviQAAZm263woBAMzadr8FAgCYtfF+1xcAwKyt97u6AABmbb7ftQUAMGv7/a4sAIBZL7DfdQUAMOvnj1frZQQAMOvb6wF4GQEAzPrFFQE8/vLt9hcAYNavrgng8dfbXwCAWb+5KoDH+80vAMCw314VwO82Pz8Aw35/VQDvNj8/ANP+cE0AD5sfH4Bp3/3xmgI2Pz4A495/A0C7P70BoN331/sO2PzsAGzR+6u9B2x+dAA26bsvAIj3/s8AxPvLX3/424u/Dm5+agD2HQDxAIgHQDwA4gEQD4B4AMQDIB4A8QCIB0A8AOIBEA+AeADEAyAeAPEAiAdAPADiARAPgHgAxAMgHgDxAIgHQDwA4gEQD4B4AMQDIB4A8QCIB0A8AOIBEA+AeADEAyAeAPEAiAdAPADiARAPgHgAxAMgHgDxAIgHQDwA4gEQD4B4AMQDIB4A8QCIB0A8AOIBEA+AeADEAyAeAPEAiAdAPADiARAPgHgAxAMgHgDxAIgHQDwA4gEQD4B4AMQDIB4A8QCIB0A8AOIBEA+AeADEAyAeAPEAiAdAPADiARAPgHgAxAMgHgDxAIgHQDwA4gEQD4B4AMQDIB4A8QCIB0A8AOIBEA+AeADEAyAeAPEAiAdAPADiARAPgHgAxAMgHgDxAIgHQDwA4gEQD4B4AMQDIB4A8QCIB0A8AOIBEA+AeADEAyAeAPEAiAdAPADiARAPgHgAxAMgHgDxAIgHQDwA4gEQD4B4AMQDIB4A8QCIB0A8AOIBEA+AeADEAyAeAPEAiAdAPADiARAPgHgAxAMgHgDxAIgHQDwA4gEQD4B4AMQDIB4A8QCIB0A8AOIBEA+AeADEAyAeAPEAiAdAPADiARAPgHgAxAMgHgDxAIgHQDwA4gEQD4B4AMQDIB4A8QCIB0A8AOIBEA+AeADEAyAeAPEAiAdAPADiARAPgHgAxAMgHgDxAIgHQDwA4gEQD4B4AMQDIB4A8QCIB0A8AOIBEA+AeADEAyAeAPEAiAdAPADiARAPgHgAxAMgHgDxAIgHQDwA4gEQD4B4AMQDIB4A8QCIB0A8AOIBEA+AeADEAyAeAPEAiAdAPADiARAPgHgAxAMgHgDxAIgHQDwA4gEQD4B4AMQDIB4A8QCIB0A8AOIBEA+AeADEAyAeAPEAiAdAPADiARAPgHgAxAMgHgDxAIgHQDwA4gEQD4B4AMQDIB4A8QCIB0A8AOIBEA+AeADEAyAeAPEAiAdAPADiARAPgHgAxAMgHgDxAIgHQDwA4gEQD4B4AMQDIB4A8QCIB0A8AOIBEA+AeADEAyAeAPEAiAdAPADiARAPgHgAxAMgHgDxAIgHQDwA4gEQD4B4AMQDIB4A8QCIB0A8AOIBEA+AeADEAyAeAPEAiAdAPADiARAPgHgAxAMgHgDxAIgHQDwA4gEQD4B4AMQDIB4A8QCIB0A8AOIBEA+AeADEAyAeAPEAiAdAPADiARAPgHgAxLs6AO07AOIBEA+AeADEAyAeAPEAiLc5gDerb6RzetgcwOvVV9I5vdscwKvVV9I5fdgcwP3qK+mc/r45gLsvV99Jp7f9F8Dd3Vf/WH0rndo///UCAO7e/nv1vXRaH17k+f+///z33cPqy+npHt59OOv3/395aCoIcRNUkQAAAABJRU5ErkJggg==;" vertex="1" parent="af7otZp4B_gTomQ4dQiQ-58">
          <mxGeometry x="20" y="20" width="98.5" height="98.5" as="geometry" />
        </mxCell>
        <mxCell id="af7otZp4B_gTomQ4dQiQ-60" value="WASM" style="text;html=1;align=center;verticalAlign=middle;whiteSpace=wrap;rounded=0;fontStyle=1" vertex="1" parent="af7otZp4B_gTomQ4dQiQ-58">
          <mxGeometry x="20" y="54.250000000000114" width="71.75" height="30" as="geometry" />
        </mxCell>
        <mxCell id="af7otZp4B_gTomQ4dQiQ-61" value="" style="shape=image;verticalLabelPosition=bottom;labelBackgroundColor=default;verticalAlign=top;aspect=fixed;imageAspect=0;image=https://cdn-icons-png.flaticon.com/512/6528/6528597.png;" vertex="1" parent="af7otZp4B_gTomQ4dQiQ-58">
          <mxGeometry x="81.75" y="59.250000000000114" width="20" height="20" as="geometry" />
        </mxCell>
        <mxCell id="af7otZp4B_gTomQ4dQiQ-62" value="&lt;div style=&quot;text-align: center; font-size: 10px;&quot;&gt;&lt;span style=&quot;background-color: initial; font-size: 10px;&quot;&gt;&lt;b style=&quot;font-size: 10px;&quot;&gt;Browser (JavaScript)&lt;/b&gt;&lt;/span&gt;&lt;/div&gt;" style="text;whiteSpace=wrap;html=1;fontSize=10;" vertex="1" parent="1">
          <mxGeometry x="280.88" y="170" width="102.75" height="16.46" as="geometry" />
        </mxCell>
        <mxCell id="af7otZp4B_gTomQ4dQiQ-63" value="&lt;font style=&quot;font-size: 15px;&quot;&gt;ARM Linux (WASM3 Runtime)&lt;/font&gt;" style="rounded=1;whiteSpace=wrap;html=1;fontStyle=1;align=center;" vertex="1" parent="1">
          <mxGeometry x="435" y="307.7799999999999" width="283.5" height="29.65" as="geometry" />
        </mxCell>
        <mxCell id="af7otZp4B_gTomQ4dQiQ-65" value="&lt;font style=&quot;font-size: 15px;&quot;&gt;RTOS (WAMR Runtime)&lt;/font&gt;" style="rounded=1;whiteSpace=wrap;html=1;fontStyle=1;align=center;" vertex="1" parent="1">
          <mxGeometry x="119.88" y="496.26999999999987" width="283.5" height="29.65" as="geometry" />
        </mxCell>
        <mxCell id="af7otZp4B_gTomQ4dQiQ-67" value="&lt;font style=&quot;font-size: 15px;&quot;&gt;Baremetal (WASM3 Runtime)&lt;/font&gt;" style="rounded=1;whiteSpace=wrap;html=1;fontStyle=1;align=center;" vertex="1" parent="1">
          <mxGeometry x="435" y="496.26999999999987" width="283.5" height="29.65" as="geometry" />
        </mxCell>
        <mxCell id="af7otZp4B_gTomQ4dQiQ-69" value="" style="shape=image;verticalLabelPosition=bottom;labelBackgroundColor=default;verticalAlign=top;aspect=fixed;imageAspect=0;image=data:image/png,iVBORw0KGgoAAAANSUhEUgAAAMoAAAD5CAMAAABRVVqZAAABKVBMVEX///8B/wEBAf//AQEFBQUAAACPj4/b/9uHh4fo6Ohubm739/fz8/Pw8PDa2tq3t7fq6uqlpaW5ubnFxcUMDAz1//X6+v98fHzLy8urq6vW1tZMTEzR0dH/4uL/vb14/3hmZv9j/2NlZWWZmZn/8fH/ior/cXH/rq7/3d3/TEz/Hx//6+vi/+Lr6/++/75V/1Xc3P+Zmf+MjP/Q0P/AwP+1tf9qav+N/40vLy//k5P/ODj/enr/hYX/x8f/0dH/ubkn/ydB/0Gh/6HT/9PIyP/I/8iCgv94eP+9vf9dXf+D/4Pr/+utrf8pKf9ERERXV1cfHx//X1//Jib/o6P/V1es/6zj4/+jo/9ERP/y8v+2/7aZ/5khIf89Pf+Skv9b/1soKChPT/9BQf/DMT3tAAAQfElEQVR4nO1d+V/bNhQPpqYJgdwlAbJCkt6jx9oO0nVrA23pQQu09L7G9v//EbMtyZYs6T1ZceywT76/rIn9nPeVnt4lmRUKE8Sla49PLj+84uPhg6t//TLJ35ogHp28nZfw7srjX/NWLCEuXpFpMNy4/Chv9Yzx6KGeB2VzcilvJU1w8Q+MSIAr1/JWFMPjG0ZEfLyfai/wyGxGwpmZXjMD1roGV/NWWY2/EhPxcH0aJwZ1WxpczFvxOC4lWyU8/sxbdxHXrIl4eJ+39jyslkmEP6ZnwVwcj4kX/aeFy9hMpobLmNZF8C5vFj7GWvERrufNw/PC6TDxspi8mRSup0Vl/iRnJpdTYzI/n2/a/yhFJvM3cqViXp2YIM8U5s9UmeRpYr+kzGT+j9yovE+byvzjnJikuuYpcqKSXkiJkE+FPIlJyckhK/qoKrx7e/nk5MFD03X1Vw5MfjVR7PrVKHu/9sBIIgcqJ7hab+NxwqThl0OjD9XqhqrLjc/Mg8yZoGXKW0u57IswbHi1+dSld4hk5haG9L2AzLCMmGbWdQtSPIKtLcT3Zd0WQ3oTcAMFadFkRIEBrh6xPjAcXTNO9cHgjebqsIllnIeBuuDJB7gTk20xCa56g5QQjC7ZrntQFZN4DTnkbLNj0AeZbMuDXYGJq8/j6riaPIYekGkvHEqLjXoNoIVmenYEysCMVi3oNzLNwqAIqUmJYzgTVMxa8meCyhmbFWjZG1XnYGMz02U/tjMGM+tMnTEYFkzsAyxCJ64+D7CdZ1IGgkXoxNXnAWbpBotlXPk0AaliYGGgfT3MQH8OoIHgkQUciYz7FPCRKWxa4M5TxgdeQW+MWTuyW5bxIRFEG7j6gntome/iwVTAngtyxPJyZhwosPOF+lYFJpn52XD0vJGuBYTuMGVKIwCm0fyVskLqGtb8zjqq+MBPsCrWr8FOfw7vHuDnwFTLBT1Vncu+KnYcV1njo8fHcjlKBSb687qQj20xqRbY5AFv+eg6v7BU5kGFAE5edFLw5kpeJ1uhAdbvLEDnSXKaFHCAgUQKcn3Z6R6HfoCh6KCPSHmdoSoAdS3YC9M65FzPGuv6YXAny05q0lCbGLZZpE7Ecn5bSm0smJQyrc79+LeqI4avXsUG8xS8YCAHSoOKVuEvpuG1D6mrb3KEQNqLnI6XV2Nxwmp/JY9zhiqIRYiZpVydSiaiuZgWHHy5M01vrUdBz7gK5FzfdKwThjCzNDcV1nqZolcJCX4hETxBGnUpiZfIFoEjS7IjGtTGOSbDAB4lbWLNz7+fNuMK8WcyzS5O3VvdM8wwg4wLHvLWYUxsff3W251jGN3e2Ht2Filt7d2eU2G08fVM0dnaGSl5UNz+cFbYfN2FeBBsnM9bSwN8w3kE2H2Wt6YI9gyJBGSe5K0tgFsJiPiwXzJPfya7f/NmotsvqH2WHnvJ1Imwsuk4H5MIfHKc3xLcnnRK5kbJ9I/w1PHwTwKBFV/gh/HEbCRlMme77vedAE/NJZ4TiRdGN1/YTczkth2Rlc9EL+e7schHKuHcNbh5KzGRubktKyY3nRDG1v85FHmJ3vvEgskrKyZ3HA5fzGTucyL/rqTPZG58Js5zMyFB5gfIxYrJh/GZOM4dE6HfRJkfwK0268TOEd+MMXE+Gwh9iQvpvfgFGyZzNjnLyve4VibudVsS2tbdumvDpGfBpPCPpJTjoEJxm/TxSX3rK6tJObBgclehlIOmYj9UUvdUdybOVgLsWDB5qtLJcZBs5He1lMKN2S0UG0e8otZJb/gEGqlN+c6eFZOvFlSea5RSGwvDT53U/fidz6yY7FowuafTCYwTkveOEL8VbEZoYVPWK1cvwe96qU29VCyzTFL9RtiwYKJZvQTaVEQ/lU7cX1gxsaqCIZ30qfsbSEpI4Owm5ZsFk9cgFZ1DTiBlNykWTApyxiJAXYXo3DfDfnSrYXTc+PBk6+Bg69be38HHWxZMNNExgtIh72NS0RrbNeEheKtbu1aOuPASU+qNQugjJuS8Zrca5PYb0gp/ZuOIgejAIEU8IKaGCCMS3lBNqy38CVVKaWC4GGulYeHRsqGiABAeA3zWBBZVfi+A9jkw+7KqSJTA7EvfRcEkqYV9yGpO4EgPF8UYF9Ky6YFMRukxwdYv2EEBUxdWT8OTkuZ2AxwfwRwfCy5BlDwAmdhkjDpIHRMBSOWFZG/BYoFDfZpbjXCoR7vzcCLm3wFGlTQnBQ4P6KQg0+JHFnALItWNOdDakZXiQ9moYfA3NsANrjSZwAmYgTzoxPw0LDP7AuunTZMHQFR+IlSsOttWmmjajCJUTU2G5wiVdPewISpGe3hQiN1GWnmpHpQAa0GDVS9tSgjYRKgY7cwdnNeDfwBIxWh/BfLmL9OgsgM8gM+qJ04FXCtGBgbtAAguEKJiZGDaZqtDXCBExagTAQUmYccVogI0JiMALcogW4CoGHW6oCJU2LOAqJjsw4OBaR/RxKTsAjNrITBB5fC/Br8EZtZ+YPobUsXgB8AiVLBQeS+Rg8HOPViE+hYK7tsZ7J/sQvKCCwTTwde650cAc7h72KjifbvzkLhY7oCjqurliYDLe39W4WMH6JmiHiQ9Em6FW0DobjfcGfDvgDchR8jz4YEQ+05wFxs7fgQPBOk7wR09ZAsYFo5l1p9BbfbVv8AAbrHQnh6yXw9mxz1YNpYtQNHaUbaLIyCNJ5ItYFsSQCIGpV8+YrcjvSwoEYOSYh/0NkQffSaGMZGKUEQffSaGMdmk94FB0ocmuvQwOcn9gUHShya6oNsSzP3hm17y9ornu/D9cUkG3fRyNhVR/w684n2EPVpUJy+xjJE5j06JssmB6uQ4P2Ot449QPkwRNdGMzhxtRG+sHHzYNZFQrDEwdwkVux9Ozc3XsAOniNaY6em8Ue/Vzs4r05PhqqTHYAcvwJvt/Z93918i+8nh3dwvJD23bgRl3WZgLcnB121Wxz8RjFRM8K04Gwi/MIFp0RTT6HZ3cojFNJyq20BXHuCb8EkRz0OTv1KAQJu6oUcjkiLe2LQ8b6iFvnGOHVhJCnlb+Wu6VIDdshfpUlGkB6mufLCBlqpDVjXQ0jQxeF8mTRPbVP5CesFlBDJJM7joqmi7s3oKoCfCkVN35tC+8ZaSRzbYYErJIwMbTGgRZgKjnnkqSx/sme+Oz8TwQHgKCQzS0BzbJRsfbR+bC9qa7Y3HJMHZULTQh2GwI2P3GgtFoi1lpC0Gw2ibDDnqBmCU8L2c+7jGGnw3fPV2y+5dA4uzFzfxXooSBmd7GKwCjM0RarO+RRxmbxBTGDS5YuhZnhwzaHLFp8Tw1dYQybKY0RhHSPBTxDzeGK13ERfMXdnIyrZCrJi7su9Gm+IKMlh7m2B3PCIBGay9TfAj0SKJAf/rJ2n97ZMXaPR/bnR4BMCB5m/rEB5p/tmTm6+B817b95F30s1w4dmOPDmj3l76f4tm5elPmc73l5/GnQ8RB0++ftvZ6PV6G6929m6dn+DfB/py7/ff7u5vb25u79/9dP9OKrMxwwwzzDDDDDP8H7FcqlS6a5XKcm4aLHka+CjZP6JSXzx0eRwtNNNT0ASlantd1GCwRq6U6RdtlVifXqQfywvk47kIwefFMcYmGcqDlkqDVlWlriDIeJOPDfEZ/NPq2TCpajSgM9EgF92OLMkurTImSiLBLZlwqes1cP15KZPrKgvrUyrB6i4DTLxhycADlKCxDKzqyI3+LYKSHAYfBm4oJYB+WZw8lb6rUoBp5XufVTr23bhok14YBJ+G9JPnMRprldJyebm01hz0Xfb1xJkshz91VG96CizXSpVO/Yjxawe3aMZ1kV4oFbi7DmviTWX6LHdt0lTYkPfF/20cW9CB7RxqLIza12nwocmvG9VtE1/4fY2a/AKpq8dVtC+yVNxD+SeOtG4jXbTI7yzGv69SPf3JKqktjNlXhfukWt0LWpKpoqyb/TXeXobKqaOix+TTUGtGZFTcFvnB5QDBv5ebq/V6o6Nw07VOw7tUjV/jZMudqifb5ZYFG3ApTyrxS3qgsrAO/XJBIKZIuLrcBBeKYeqwOmTucrgq3N9ZbEWutNXnnki+8mJ19yhMsMLIXRGMRKBCUOHvEqynLYrqc4ISP8GBtXkzWTqO4pnrnkZJWmUoJB/eh8gnunRA21G4ct0+vaj3OyRHrpAZPFZY2Dnebgo1vcut8ZwJlcNYahAlAxU5YrvukkCl1hZl18nFBj/5eizIinbFmRIMUgSLON2Iyrq3ssRkgPmdYxbmuKvhwBMqvs6CLEsBjaisyRZWFNkxG6zJwku87VF35q+QdrFY7FOF2LQwfc71i/5VaoXsqTRP8mROPeH20OWNpUE/YP9f1ZZgTdw3zOYYFYU7YlSaERVvtbAJpvk0HVoag6pMthlcZX6RzdghXZ8dKltJQqUtzoE8T1399JZ557YgzR711cSIiObc5BOD7AtUjsKrDW4YmoZUYp43sq9u7AYzKpw2TP1gwivcKBMEQ8bmXrBFTnaQhEosHso+jVFRiKqoDLjrR0TbpUgdTptll9OPnz+CYTSLgF2IiEURtjTCxCohFT6SFqOlTbI94SH8upcTisOISsWUCgtA1MKYyYcREaCi8mB8SB5EX9F/NqoMDbqSShyVKie7HlFh4WCpgEHI6Aun8Zi5ph8TFlfWOCp8+KHa+kzZCowXgXRJglRqxlRYHV/iRyBKqIG4IkRPBZVGZHNiHI9ADRKkQotIVZCOgQWvYMGy/DIyeaavlMxFl8rGVFwJDZwKsxs5dWov+uiHSWuZ/kpQdsh1ZVmwBAFd3kvqqXRCKu5iHP2OORU5N6ft0ihaHUW2yKyfd4v0QQ2ZSpX34woqpCYPBmFB9mA8YCpDPm0oxG/iAy+rKxuRsfF6H8sBg0KoImEPRp2xrmcGU+nHNWagHMPwHppQOyx+BXfVl8O4OChtngo/CMVI/6o8Z+ZU6HPWZTEpHlGVWuE1Qe2BLm9gQ1DnqSiivS/YjWyNSS+2PSwaOGM2DpJ5dmQbYo2XEnO8qyqBfvxJbI11eSp8z4LkUaf+P0sS0QpZsgbOOIwHcQ1OZefKYlCdTYBo0iyaHRcbJTo15VpzIdadXBCI+aCrfpGjdRw9tcqvLZhKqEFr0KkRDcrL3UGoAG8vdPmss/+K5GkviQaFVov1Gui3iyKV0GeyeoXtgBDTZaNUOna5cUCo9NUa0C8FdVlgFIw/RIWL1LHWMze9IRXX7RcXikdhFVmmxOjlQ7/GDOtEvl7RU+nIGnBfCMuBV1aRo+iyjuBmlkKzeiVe27PrLTHe0w98V0dPhUZutQJcAcz9DrkmdxsXdfsbbpSsUSq1oTgsoSF3VR0XNqAYlfJQr0Eso1rgqSiCYfNQnFQ2vIfN2CPcGv+rrjuMZrjbivfBjsNKAqPirwFJg0CFw3ioWuN/QxnHKoN1rrXo47Rf5++MEpfVcCf5UMw1mn3+EX0uHJBv+LvJM/jOerMo7lB76/9ooNCVu+FYvkqxVGn6Hd/6aqPZrcUjJp+DkZ5xV1FgLHebVf8BHVGH5SUf/COXpG+oeKBBvdrslDRVZdmT8zvQCnFDKNLJs4oZlWnEjMo0YkZlGjGjMo2gJ8b+D1QGrWMPqibmlOA/wwXFiAfi2L0AAAAASUVORK5CYII=;" vertex="1" parent="1">
          <mxGeometry x="599.94" y="836" width="42" height="51.77" as="geometry" />
        </mxCell>
        <mxCell id="af7otZp4B_gTomQ4dQiQ-72" value="" style="group" vertex="1" connectable="0" parent="1">
          <mxGeometry x="423" y="169.99999999999994" width="138.5" height="138.5" as="geometry" />
        </mxCell>
        <mxCell id="af7otZp4B_gTomQ4dQiQ-73" value="" style="shape=image;verticalLabelPosition=bottom;labelBackgroundColor=default;verticalAlign=top;aspect=fixed;imageAspect=0;image=data:image/png,iVBORw0KGgoAAAANSUhEUgAAAgAAAAIACAMAAADDpiTIAAAAilBMVEUAAAA4OEw1OEk1Nko2OEs0NkszM0w1N0o2Nks4OFQ1OEo3N002Nkg0Nks0OEs0Nkk2OEs1OEs2N0k1N0o0N0s0NEs1OEo1N0szOEs2OEs2OEsvP082N0k1NUk1OUk0OEw0OEs2Nk02OEo2Nks0Nkk2OEo2Nks0OEk2Nko/Pz82OEo0OUg2N0o2OEvkqzuBAAAALXRSTlMAMpnb+vsKnZsJwxcO98f85rrGd5witZg22Z8Q4TRMTbQhdbfkli/CwAiaMZfrZxnlAAAHk0lEQVR42u3X62IbVxlGYTtx0hZaKGdCCQVKOPv+bw9+N4kt6Rtrz2g96wr2fueRNLq7O6P7V68fHjXqzetX9+dsvqPefrF6vFvpy69WP8uLnv9PVu92Q/109dO8IJ//Lft69eM8u/vVk91W3xxOwKvVk91YPzuagNerF7u1jibA/7+tO5iA1XPdYMcSsHqtW+xQAlaPdZMdScDqrW6zAwlYPdWNdhwBq5e61Q4jYPVQN9tRBKze6XY7iIAfH3v1eY7W4QUAMOvw3wEAzDr8rwAAsw7/HgDArMO/CQIw6/D/BQCY9RyA3QsAYNazAPYuAIBZzwPYuQAAZp0AYN8CAJh1CoBdCwBg1kfP+mgCAJj14/2+PpoAAGZ9tN/RBAAw6+P9DiYAgFmf2O9YAgCY9an9DiUAgFmf3O9IAgCY9en9DiQAgFmf2e84AgCY9bn9DiMAgFmf3e8oAgCY9fn9DiIAgFlP7HcMAQDMemq/QwgAYNaT+x1BAACznt7vAAIAmPXMfvsXAMCs5/bbvQAAZj27394FADDr+f12LgCAWSfst28BAMw6Zb9dCwBg1kn77VkAALNO22/HAgCYdeJ++xUAwKxT99utAABmnbzfXgUAMOv0/XYqAIBZZ+y3TwEAzDpnv10KAGDWWfvtUQAAs87bb4cCAJh15n77EwDArHP3250AAGadvd/eBAAw6/z9diYAgFkX7LcvAQDMumS/XQkAYNZF++1JAACzLttvRwIAmHXhfvsRAMCsS/fbjQAAZl28314EADDr8v12IgCAWYP99iEAgFmT/XYhAIBZo/32IACAWbP9diAAgFnD/dYLAGDWdL/lAgCYNd5vtQAAZs33WywAgFkb7LdWAACztthvqQAAZm2y30oBAMzaZr+FAgCYtdF+6wQAMGur/ZYJAGDWZvutEgDArO32WyQAgFkb7rdGAACzttxviQAAZm263woBAMzadr8FAgCYtfF+1xcAwKyt97u6AABmbb7ftQUAMGv7/a4sAIBZL7DfdQUAMOvnj1frZQQAMOvb6wF4GQEAzPrFFQE8/vLt9hcAYNavrgng8dfbXwCAWb+5KoDH+80vAMCw314VwO82Pz8Aw35/VQDvNj8/ANP+cE0AD5sfH4Bp3/3xmgI2Pz4A495/A0C7P70BoN331/sO2PzsAGzR+6u9B2x+dAA26bsvAIj3/s8AxPvLX3/424u/Dm5+agD2HQDxAIgHQDwA4gEQD4B4AMQDIB4A8QCIB0A8AOIBEA+AeADEAyAeAPEAiAdAPADiARAPgHgAxAMgHgDxAIgHQDwA4gEQD4B4AMQDIB4A8QCIB0A8AOIBEA+AeADEAyAeAPEAiAdAPADiARAPgHgAxAMgHgDxAIgHQDwA4gEQD4B4AMQDIB4A8QCIB0A8AOIBEA+AeADEAyAeAPEAiAdAPADiARAPgHgAxAMgHgDxAIgHQDwA4gEQD4B4AMQDIB4A8QCIB0A8AOIBEA+AeADEAyAeAPEAiAdAPADiARAPgHgAxAMgHgDxAIgHQDwA4gEQD4B4AMQDIB4A8QCIB0A8AOIBEA+AeADEAyAeAPEAiAdAPADiARAPgHgAxAMgHgDxAIgHQDwA4gEQD4B4AMQDIB4A8QCIB0A8AOIBEA+AeADEAyAeAPEAiAdAPADiARAPgHgAxAMgHgDxAIgHQDwA4gEQD4B4AMQDIB4A8QCIB0A8AOIBEA+AeADEAyAeAPEAiAdAPADiARAPgHgAxAMgHgDxAIgHQDwA4gEQD4B4AMQDIB4A8QCIB0A8AOIBEA+AeADEAyAeAPEAiAdAPADiARAPgHgAxAMgHgDxAIgHQDwA4gEQD4B4AMQDIB4A8QCIB0A8AOIBEA+AeADEAyAeAPEAiAdAPADiARAPgHgAxAMgHgDxAIgHQDwA4gEQD4B4AMQDIB4A8QCIB0A8AOIBEA+AeADEAyAeAPEAiAdAPADiARAPgHgAxAMgHgDxAIgHQDwA4gEQD4B4AMQDIB4A8QCIB0A8AOIBEA+AeADEAyAeAPEAiAdAPADiARAPgHgAxAMgHgDxAIgHQDwA4gEQD4B4AMQDIB4A8QCIB0A8AOIBEA+AeADEAyAeAPEAiAdAPADiARAPgHgAxAMgHgDxAIgHQDwA4gEQD4B4AMQDIB4A8QCIB0A8AOIBEA+AeADEAyAeAPEAiAdAPADiARAPgHgAxAMgHgDxAIgHQDwA4gEQD4B4AMQDIB4A8QCIB0A8AOIBEA+AeADEAyAeAPEAiAdAPADiARAPgHgAxAMgHgDxAIgHQDwA4gEQD4B4AMQDIB4A8QCIB0A8AOIBEA+AeADEAyAeAPEAiAdAPADiARAPgHgAxAMgHgDxAIgHQDwA4gEQD4B4AMQDIB4A8QCIB0A8AOIBEA+AeADEAyAeAPEAiAdAPADiARAPgHgAxLs6AO07AOIBEA+AeADEAyAeAPEAiLc5gDerb6RzetgcwOvVV9I5vdscwKvVV9I5fdgcwP3qK+mc/r45gLsvV99Jp7f9F8Dd3Vf/WH0rndo///UCAO7e/nv1vXRaH17k+f+///z33cPqy+npHt59OOv3/395aCoIcRNUkQAAAABJRU5ErkJggg==;" vertex="1" parent="af7otZp4B_gTomQ4dQiQ-72">
          <mxGeometry x="20" y="20" width="98.5" height="98.5" as="geometry" />
        </mxCell>
        <mxCell id="af7otZp4B_gTomQ4dQiQ-74" value="WASM" style="text;html=1;align=center;verticalAlign=middle;whiteSpace=wrap;rounded=0;fontStyle=1" vertex="1" parent="af7otZp4B_gTomQ4dQiQ-72">
          <mxGeometry x="20" y="54.250000000000114" width="71.75" height="30" as="geometry" />
        </mxCell>
        <mxCell id="af7otZp4B_gTomQ4dQiQ-75" value="" style="shape=image;verticalLabelPosition=bottom;labelBackgroundColor=default;verticalAlign=top;aspect=fixed;imageAspect=0;image=https://cdn-icons-png.flaticon.com/512/6528/6528597.png;" vertex="1" parent="af7otZp4B_gTomQ4dQiQ-72">
          <mxGeometry x="81.75" y="59.250000000000114" width="20" height="20" as="geometry" />
        </mxCell>
        <mxCell id="af7otZp4B_gTomQ4dQiQ-76" value="" style="group" vertex="1" connectable="0" parent="1">
          <mxGeometry x="103" y="369.9999999999999" width="138.5" height="138.5" as="geometry" />
        </mxCell>
        <mxCell id="af7otZp4B_gTomQ4dQiQ-77" value="" style="shape=image;verticalLabelPosition=bottom;labelBackgroundColor=default;verticalAlign=top;aspect=fixed;imageAspect=0;image=data:image/png,iVBORw0KGgoAAAANSUhEUgAAAgAAAAIACAMAAADDpiTIAAAAilBMVEUAAAA4OEw1OEk1Nko2OEs0NkszM0w1N0o2Nks4OFQ1OEo3N002Nkg0Nks0OEs0Nkk2OEs1OEs2N0k1N0o0N0s0NEs1OEo1N0szOEs2OEs2OEsvP082N0k1NUk1OUk0OEw0OEs2Nk02OEo2Nks0Nkk2OEo2Nks0OEk2Nko/Pz82OEo0OUg2N0o2OEvkqzuBAAAALXRSTlMAMpnb+vsKnZsJwxcO98f85rrGd5witZg22Z8Q4TRMTbQhdbfkli/CwAiaMZfrZxnlAAAHk0lEQVR42u3X62IbVxlGYTtx0hZaKGdCCQVKOPv+bw9+N4kt6Rtrz2g96wr2fueRNLq7O6P7V68fHjXqzetX9+dsvqPefrF6vFvpy69WP8uLnv9PVu92Q/109dO8IJ//Lft69eM8u/vVk91W3xxOwKvVk91YPzuagNerF7u1jibA/7+tO5iA1XPdYMcSsHqtW+xQAlaPdZMdScDqrW6zAwlYPdWNdhwBq5e61Q4jYPVQN9tRBKze6XY7iIAfH3v1eY7W4QUAMOvw3wEAzDr8rwAAsw7/HgDArMO/CQIw6/D/BQCY9RyA3QsAYNazAPYuAIBZzwPYuQAAZp0AYN8CAJh1CoBdCwBg1kfP+mgCAJj14/2+PpoAAGZ9tN/RBAAw6+P9DiYAgFmf2O9YAgCY9an9DiUAgFmf3O9IAgCY9en9DiQAgFmf2e84AgCY9bn9DiMAgFmf3e8oAgCY9fn9DiIAgFlP7HcMAQDMemq/QwgAYNaT+x1BAACznt7vAAIAmPXMfvsXAMCs5/bbvQAAZj27394FADDr+f12LgCAWSfst28BAMw6Zb9dCwBg1kn77VkAALNO22/HAgCYdeJ++xUAwKxT99utAABmnbzfXgUAMOv0/XYqAIBZZ+y3TwEAzDpnv10KAGDWWfvtUQAAs87bb4cCAJh15n77EwDArHP3250AAGadvd/eBAAw6/z9diYAgFkX7LcvAQDMumS/XQkAYNZF++1JAACzLttvRwIAmHXhfvsRAMCsS/fbjQAAZl28314EADDr8v12IgCAWYP99iEAgFmT/XYhAIBZo/32IACAWbP9diAAgFnD/dYLAGDWdL/lAgCYNd5vtQAAZs33WywAgFkb7LdWAACztthvqQAAZm2y30oBAMzaZr+FAgCYtdF+6wQAMGur/ZYJAGDWZvutEgDArO32WyQAgFkb7rdGAACzttxviQAAZm263woBAMzadr8FAgCYtfF+1xcAwKyt97u6AABmbb7ftQUAMGv7/a4sAIBZL7DfdQUAMOvnj1frZQQAMOvb6wF4GQEAzPrFFQE8/vLt9hcAYNavrgng8dfbXwCAWb+5KoDH+80vAMCw314VwO82Pz8Aw35/VQDvNj8/ANP+cE0AD5sfH4Bp3/3xmgI2Pz4A495/A0C7P70BoN331/sO2PzsAGzR+6u9B2x+dAA26bsvAIj3/s8AxPvLX3/424u/Dm5+agD2HQDxAIgHQDwA4gEQD4B4AMQDIB4A8QCIB0A8AOIBEA+AeADEAyAeAPEAiAdAPADiARAPgHgAxAMgHgDxAIgHQDwA4gEQD4B4AMQDIB4A8QCIB0A8AOIBEA+AeADEAyAeAPEAiAdAPADiARAPgHgAxAMgHgDxAIgHQDwA4gEQD4B4AMQDIB4A8QCIB0A8AOIBEA+AeADEAyAeAPEAiAdAPADiARAPgHgAxAMgHgDxAIgHQDwA4gEQD4B4AMQDIB4A8QCIB0A8AOIBEA+AeADEAyAeAPEAiAdAPADiARAPgHgAxAMgHgDxAIgHQDwA4gEQD4B4AMQDIB4A8QCIB0A8AOIBEA+AeADEAyAeAPEAiAdAPADiARAPgHgAxAMgHgDxAIgHQDwA4gEQD4B4AMQDIB4A8QCIB0A8AOIBEA+AeADEAyAeAPEAiAdAPADiARAPgHgAxAMgHgDxAIgHQDwA4gEQD4B4AMQDIB4A8QCIB0A8AOIBEA+AeADEAyAeAPEAiAdAPADiARAPgHgAxAMgHgDxAIgHQDwA4gEQD4B4AMQDIB4A8QCIB0A8AOIBEA+AeADEAyAeAPEAiAdAPADiARAPgHgAxAMgHgDxAIgHQDwA4gEQD4B4AMQDIB4A8QCIB0A8AOIBEA+AeADEAyAeAPEAiAdAPADiARAPgHgAxAMgHgDxAIgHQDwA4gEQD4B4AMQDIB4A8QCIB0A8AOIBEA+AeADEAyAeAPEAiAdAPADiARAPgHgAxAMgHgDxAIgHQDwA4gEQD4B4AMQDIB4A8QCIB0A8AOIBEA+AeADEAyAeAPEAiAdAPADiARAPgHgAxAMgHgDxAIgHQDwA4gEQD4B4AMQDIB4A8QCIB0A8AOIBEA+AeADEAyAeAPEAiAdAPADiARAPgHgAxAMgHgDxAIgHQDwA4gEQD4B4AMQDIB4A8QCIB0A8AOIBEA+AeADEAyAeAPEAiAdAPADiARAPgHgAxAMgHgDxAIgHQDwA4gEQD4B4AMQDIB4A8QCIB0A8AOIBEA+AeADEAyAeAPEAiAdAPADiARAPgHgAxAMgHgDxAIgHQDwA4gEQD4B4AMQDIB4A8QCIB0A8AOIBEA+AeADEAyAeAPEAiAdAPADiARAPgHgAxAMgHgDxAIgHQDwA4gEQD4B4AMQDIB4A8QCIB0A8AOIBEA+AeADEAyAeAPEAiAdAPADiARAPgHgAxLs6AO07AOIBEA+AeADEAyAeAPEAiLc5gDerb6RzetgcwOvVV9I5vdscwKvVV9I5fdgcwP3qK+mc/r45gLsvV99Jp7f9F8Dd3Vf/WH0rndo///UCAO7e/nv1vXRaH17k+f+///z33cPqy+npHt59OOv3/395aCoIcRNUkQAAAABJRU5ErkJggg==;" vertex="1" parent="af7otZp4B_gTomQ4dQiQ-76">
          <mxGeometry x="20" y="20" width="98.5" height="98.5" as="geometry" />
        </mxCell>
        <mxCell id="af7otZp4B_gTomQ4dQiQ-78" value="WASM" style="text;html=1;align=center;verticalAlign=middle;whiteSpace=wrap;rounded=0;fontStyle=1" vertex="1" parent="af7otZp4B_gTomQ4dQiQ-76">
          <mxGeometry x="20" y="54.250000000000114" width="71.75" height="30" as="geometry" />
        </mxCell>
        <mxCell id="af7otZp4B_gTomQ4dQiQ-79" value="" style="shape=image;verticalLabelPosition=bottom;labelBackgroundColor=default;verticalAlign=top;aspect=fixed;imageAspect=0;image=https://cdn-icons-png.flaticon.com/512/6528/6528597.png;" vertex="1" parent="af7otZp4B_gTomQ4dQiQ-76">
          <mxGeometry x="81.75" y="59.250000000000114" width="20" height="20" as="geometry" />
        </mxCell>
        <mxCell id="af7otZp4B_gTomQ4dQiQ-80" value="" style="group" vertex="1" connectable="0" parent="1">
          <mxGeometry x="423" y="369.9999999999999" width="138.5" height="138.5" as="geometry" />
        </mxCell>
        <mxCell id="af7otZp4B_gTomQ4dQiQ-81" value="" style="shape=image;verticalLabelPosition=bottom;labelBackgroundColor=default;verticalAlign=top;aspect=fixed;imageAspect=0;image=data:image/png,iVBORw0KGgoAAAANSUhEUgAAAgAAAAIACAMAAADDpiTIAAAAilBMVEUAAAA4OEw1OEk1Nko2OEs0NkszM0w1N0o2Nks4OFQ1OEo3N002Nkg0Nks0OEs0Nkk2OEs1OEs2N0k1N0o0N0s0NEs1OEo1N0szOEs2OEs2OEsvP082N0k1NUk1OUk0OEw0OEs2Nk02OEo2Nks0Nkk2OEo2Nks0OEk2Nko/Pz82OEo0OUg2N0o2OEvkqzuBAAAALXRSTlMAMpnb+vsKnZsJwxcO98f85rrGd5witZg22Z8Q4TRMTbQhdbfkli/CwAiaMZfrZxnlAAAHk0lEQVR42u3X62IbVxlGYTtx0hZaKGdCCQVKOPv+bw9+N4kt6Rtrz2g96wr2fueRNLq7O6P7V68fHjXqzetX9+dsvqPefrF6vFvpy69WP8uLnv9PVu92Q/109dO8IJ//Lft69eM8u/vVk91W3xxOwKvVk91YPzuagNerF7u1jibA/7+tO5iA1XPdYMcSsHqtW+xQAlaPdZMdScDqrW6zAwlYPdWNdhwBq5e61Q4jYPVQN9tRBKze6XY7iIAfH3v1eY7W4QUAMOvw3wEAzDr8rwAAsw7/HgDArMO/CQIw6/D/BQCY9RyA3QsAYNazAPYuAIBZzwPYuQAAZp0AYN8CAJh1CoBdCwBg1kfP+mgCAJj14/2+PpoAAGZ9tN/RBAAw6+P9DiYAgFmf2O9YAgCY9an9DiUAgFmf3O9IAgCY9en9DiQAgFmf2e84AgCY9bn9DiMAgFmf3e8oAgCY9fn9DiIAgFlP7HcMAQDMemq/QwgAYNaT+x1BAACznt7vAAIAmPXMfvsXAMCs5/bbvQAAZj27394FADDr+f12LgCAWSfst28BAMw6Zb9dCwBg1kn77VkAALNO22/HAgCYdeJ++xUAwKxT99utAABmnbzfXgUAMOv0/XYqAIBZZ+y3TwEAzDpnv10KAGDWWfvtUQAAs87bb4cCAJh15n77EwDArHP3250AAGadvd/eBAAw6/z9diYAgFkX7LcvAQDMumS/XQkAYNZF++1JAACzLttvRwIAmHXhfvsRAMCsS/fbjQAAZl28314EADDr8v12IgCAWYP99iEAgFmT/XYhAIBZo/32IACAWbP9diAAgFnD/dYLAGDWdL/lAgCYNd5vtQAAZs33WywAgFkb7LdWAACztthvqQAAZm2y30oBAMzaZr+FAgCYtdF+6wQAMGur/ZYJAGDWZvutEgDArO32WyQAgFkb7rdGAACzttxviQAAZm263woBAMzadr8FAgCYtfF+1xcAwKyt97u6AABmbb7ftQUAMGv7/a4sAIBZL7DfdQUAMOvnj1frZQQAMOvb6wF4GQEAzPrFFQE8/vLt9hcAYNavrgng8dfbXwCAWb+5KoDH+80vAMCw314VwO82Pz8Aw35/VQDvNj8/ANP+cE0AD5sfH4Bp3/3xmgI2Pz4A495/A0C7P70BoN331/sO2PzsAGzR+6u9B2x+dAA26bsvAIj3/s8AxPvLX3/424u/Dm5+agD2HQDxAIgHQDwA4gEQD4B4AMQDIB4A8QCIB0A8AOIBEA+AeADEAyAeAPEAiAdAPADiARAPgHgAxAMgHgDxAIgHQDwA4gEQD4B4AMQDIB4A8QCIB0A8AOIBEA+AeADEAyAeAPEAiAdAPADiARAPgHgAxAMgHgDxAIgHQDwA4gEQD4B4AMQDIB4A8QCIB0A8AOIBEA+AeADEAyAeAPEAiAdAPADiARAPgHgAxAMgHgDxAIgHQDwA4gEQD4B4AMQDIB4A8QCIB0A8AOIBEA+AeADEAyAeAPEAiAdAPADiARAPgHgAxAMgHgDxAIgHQDwA4gEQD4B4AMQDIB4A8QCIB0A8AOIBEA+AeADEAyAeAPEAiAdAPADiARAPgHgAxAMgHgDxAIgHQDwA4gEQD4B4AMQDIB4A8QCIB0A8AOIBEA+AeADEAyAeAPEAiAdAPADiARAPgHgAxAMgHgDxAIgHQDwA4gEQD4B4AMQDIB4A8QCIB0A8AOIBEA+AeADEAyAeAPEAiAdAPADiARAPgHgAxAMgHgDxAIgHQDwA4gEQD4B4AMQDIB4A8QCIB0A8AOIBEA+AeADEAyAeAPEAiAdAPADiARAPgHgAxAMgHgDxAIgHQDwA4gEQD4B4AMQDIB4A8QCIB0A8AOIBEA+AeADEAyAeAPEAiAdAPADiARAPgHgAxAMgHgDxAIgHQDwA4gEQD4B4AMQDIB4A8QCIB0A8AOIBEA+AeADEAyAeAPEAiAdAPADiARAPgHgAxAMgHgDxAIgHQDwA4gEQD4B4AMQDIB4A8QCIB0A8AOIBEA+AeADEAyAeAPEAiAdAPADiARAPgHgAxAMgHgDxAIgHQDwA4gEQD4B4AMQDIB4A8QCIB0A8AOIBEA+AeADEAyAeAPEAiAdAPADiARAPgHgAxAMgHgDxAIgHQDwA4gEQD4B4AMQDIB4A8QCIB0A8AOIBEA+AeADEAyAeAPEAiAdAPADiARAPgHgAxAMgHgDxAIgHQDwA4gEQD4B4AMQDIB4A8QCIB0A8AOIBEA+AeADEAyAeAPEAiAdAPADiARAPgHgAxAMgHgDxAIgHQDwA4gEQD4B4AMQDIB4A8QCIB0A8AOIBEA+AeADEAyAeAPEAiAdAPADiARAPgHgAxAMgHgDxAIgHQDwA4gEQD4B4AMQDIB4A8QCIB0A8AOIBEA+AeADEAyAeAPEAiAdAPADiARAPgHgAxLs6AO07AOIBEA+AeADEAyAeAPEAiLc5gDerb6RzetgcwOvVV9I5vdscwKvVV9I5fdgcwP3qK+mc/r45gLsvV99Jp7f9F8Dd3Vf/WH0rndo///UCAO7e/nv1vXRaH17k+f+///z33cPqy+npHt59OOv3/395aCoIcRNUkQAAAABJRU5ErkJggg==;" vertex="1" parent="af7otZp4B_gTomQ4dQiQ-80">
          <mxGeometry x="20" y="20" width="98.5" height="98.5" as="geometry" />
        </mxCell>
        <mxCell id="af7otZp4B_gTomQ4dQiQ-82" value="WASM" style="text;html=1;align=center;verticalAlign=middle;whiteSpace=wrap;rounded=0;fontStyle=1" vertex="1" parent="af7otZp4B_gTomQ4dQiQ-80">
          <mxGeometry x="20" y="54.250000000000114" width="71.75" height="30" as="geometry" />
        </mxCell>
        <mxCell id="af7otZp4B_gTomQ4dQiQ-83" value="" style="shape=image;verticalLabelPosition=bottom;labelBackgroundColor=default;verticalAlign=top;aspect=fixed;imageAspect=0;image=https://cdn-icons-png.flaticon.com/512/6528/6528597.png;" vertex="1" parent="af7otZp4B_gTomQ4dQiQ-80">
          <mxGeometry x="81.75" y="59.250000000000114" width="20" height="20" as="geometry" />
        </mxCell>
        <mxCell id="af7otZp4B_gTomQ4dQiQ-86" value="Different Programming Languages" style="text;html=1;align=center;verticalAlign=middle;whiteSpace=wrap;rounded=0;" vertex="1" parent="1">
          <mxGeometry x="1398" y="381.5" width="256.5" height="30" as="geometry" />
        </mxCell>
        <mxCell id="af7otZp4B_gTomQ4dQiQ-87" value="wasi-thread wasi-file wasi-socket" style="text;html=1;align=center;verticalAlign=middle;whiteSpace=wrap;rounded=0;" vertex="1" parent="1">
          <mxGeometry x="940" y="420" width="180" height="30" as="geometry" />
        </mxCell>
        <mxCell id="af7otZp4B_gTomQ4dQiQ-88" value="Memory" style="text;html=1;align=center;verticalAlign=middle;whiteSpace=wrap;rounded=0;" vertex="1" parent="1">
          <mxGeometry x="1181" y="307.43" width="120" height="30" as="geometry" />
        </mxCell>
        <mxCell id="af7otZp4B_gTomQ4dQiQ-89" value="" style="shape=image;verticalLabelPosition=bottom;labelBackgroundColor=default;verticalAlign=top;aspect=fixed;imageAspect=0;image=https://cdn-icons-png.flaticon.com/512/6528/6528597.png;" vertex="1" parent="1">
          <mxGeometry x="1267.5" y="312.43" width="20" height="20" as="geometry" />
        </mxCell>
      </root>
    </mxGraphModel>
  </diagram>
</mxfile>
